<?xml version="1.0" standalone="no"?>
<!DOCTYPE svg PUBLIC "-//W3C//DTD SVG 1.1//EN" "http://www.w3.org/Graphics/SVG/1.1/DTD/svg11.dtd" >
<svg xmlns="http://www.w3.org/2000/svg">
<metadata>
Created by FontPrep 20130207 at Mon Feb  1 21:44:32 2016
 By Steve Graegert
Copyright (c) 1988, 1990, 1993, 2003 Linotype Library GmbH, www.linotype.com. All rights reserved. Copyright (c) 1988, 1990, 1993 Adobe Systems Incorporated. All Rights Reserved.
</metadata>
<defs>
<font id="9dd5aaf519bf10509e2149a20340ceca" horiz-adv-x='1024' >
  <font-face 
    font-family="HelveticaNeueLTPro-HvIt"
    font-weight="750"
    font-style="italic"
    font-stretch="normal"
    units-per-em="2048"
    panose-1="2 11 8 4 2 2 2 9 2 4"
    ascent="1462"
    descent="-586"
    x-height="1063"
    cap-height="1462"
    bbox="-338 -479.12 2333 1954"
    underline-thickness="102"
    underline-position="-102"
    slope="-12"
    unicode-range="U+000D-FB02"
  />
<missing-glyph horiz-adv-x="1048" 
d="M1049 1470v-1470h-1049v1470h1049zM946 102v1264h-844v-1264h844zM524 1145q-145 0 -168 -195l-102 17q14 141 88 211t186 70t185 -74q72 -74 71 -195q0 -70 -26 -123t-103 -122q-76 -68 -88 -108t-12 -147h-94l-4 35q1 115 29 169t92 118q63 59 82 94q20 35 20 93
t-46 107q-46 50 -110 50zM455 240v137h114v-137h-114z" />
    <glyph glyph-name=".notdef" horiz-adv-x="1048" 
d="M1049 1470v-1470h-1049v1470h1049zM946 102v1264h-844v-1264h844zM524 1145q-145 0 -168 -195l-102 17q14 141 88 211t186 70t185 -74q72 -74 71 -195q0 -70 -26 -123t-103 -122q-76 -68 -88 -108t-12 -147h-94l-4 35q1 115 29 169t92 118q63 59 82 94q20 35 20 93
t-46 107q-46 50 -110 50zM455 240v137h114v-137h-114z" />
    <glyph glyph-name=".null" horiz-adv-x="1024" 
 />
    <glyph glyph-name=".null" horiz-adv-x="1024" 
 />
    <glyph glyph-name="nonmarkingreturn" horiz-adv-x="681" 
 />
    <glyph glyph-name="CR" unicode="&#xd;" horiz-adv-x="0" 
 />
    <glyph glyph-name="space" unicode=" " horiz-adv-x="645" 
 />
    <glyph glyph-name="exclam" unicode="!" horiz-adv-x="645" 
d="M657 1462l-75 -366l-228 -611h-170l35 611l78 366h360zM-10 0l76 360h358l-76 -360h-358z" />
    <glyph glyph-name="quotedbl" unicode="&#x22;" horiz-adv-x="1024" 
d="M793 745v717h294v-717h-294zM317 745v717h295v-717h-295z" />
    <glyph glyph-name="numbersign" unicode="#" 
d="M1087 604l-30 -215h-158l-53 -389h-236l54 389h-166l-54 -389h-235l53 389h-182l31 215h182l31 225h-183l31 215h182l54 383h235l-53 -383h166l53 383h235l-53 -383h158l-31 -215h-157l-31 -225h157zM725 829h-166l-31 -225h166z" />
    <glyph glyph-name="dollar" unicode="$" 
d="M834 420q0 74 -41 107t-113 53l-68 -316q82 0 152 41t70 115zM506 1061q0 -61 30 -85t101 -42l57 264q-84 0 -136 -38t-52 -99zM721 1493q27 0 33 -2l26 129h117l-29 -137q190 -23 308 -136q117 -114 108 -325h-360q8 133 -115 174l-61 -295q86 -23 141 -40t124 -52
q203 -103 202 -347q-1 -165 -102 -282q-182 -211 -562 -211l-37 -174h-117l39 182q-246 27 -368 160t-105 355h377q-4 -86 40 -142t118 -76l71 336q-229 70 -337 154t-107 244q0 242 172 364t424 121z" />
    <glyph glyph-name="percent" unicode="%" horiz-adv-x="2009" 
d="M1436 -18q-145 0 -227 84q-81 84 -81 231q0 199 112 336t306 137q146 0 232 -81t86 -228q0 -197 -114 -338t-314 -141zM1538 608q-57 0 -100 -68q-74 -116 -74 -256q0 -141 90 -141q49 0 94 49t72 206q8 54 8 98q0 112 -90 112zM1634 1483l-1046 -1538h-217l1046 1538
h217zM453 657q-145 0 -227 84q-81 84 -81 232q0 199 112 336t306 137q147 0 233 -81t85 -228q-1 -197 -115 -339t-313 -141zM555 1284q-57 0 -100 -68q-74 -116 -74 -256q0 -141 90 -141q49 0 95 49t71 206q8 54 8 97q0 113 -90 113z" />
    <glyph glyph-name="ampersand" unicode="&#x26;" horiz-adv-x="1441" 
d="M555 264q119 0 195 80l-162 279q-190 -88 -191 -222q0 -65 43 -101t115 -36zM524 -31q-201 0 -338 117t-137 298t110 294t281 176q-80 121 -80 233q0 180 120 293t289 113t281 -73q130 -82 130 -283q0 -133 -92 -233t-226 -163l123 -200q59 63 90 166h309
q-61 -258 -241 -418l188 -289h-377l-53 84q-176 -115 -377 -115zM885 1148q0 110 -109 109q-55 -1 -88 -33t-33 -105t80 -173q150 92 150 202z" />
    <glyph glyph-name="quotesingle" unicode="'" horiz-adv-x="606" 
d="M262 745v717h295v-717h-295z" />
    <glyph glyph-name="parenleft" unicode="(" horiz-adv-x="645" 
d="M377 281q0 -193 15 -320t54 -317h-278q-106 305 -106 642q0 336 112 624q113 288 338 583h305q-440 -580 -440 -1212z" />
    <glyph glyph-name="parenright" unicode=")" horiz-adv-x="645" 
d="M563 851q-1 -337 -113 -625t-337 -582h-306q440 580 441 1212q0 251 -32 427q-11 67 -38 210h279q106 -305 106 -642z" />
    <glyph glyph-name="asterisk" unicode="*" horiz-adv-x="909" 
d="M391 1038l-239 111l84 174l231 -123l33 262h194l-45 -282l256 55l39 -191l-260 -40l125 -224l-168 -94l-123 229l-184 -210l-141 135z" />
    <glyph glyph-name="plus" unicode="+" horiz-adv-x="1228" 
d="M467 666v370h295v-370h368v-295h-368v-371h-295v371h-369v295h369z" />
    <glyph glyph-name="comma" unicode="," horiz-adv-x="645" 
d="M-4 0l74 360h370l-73 -360q-76 -369 -447 -356l37 163q170 18 197 193h-158z" />
    <glyph glyph-name="hyphen" unicode="-" horiz-adv-x="833" 
d="M664 410h-631l61 295h631z" />
    <glyph glyph-name="period" unicode="." horiz-adv-x="645" 
d="M-10 0l76 360h374l-75 -360h-375z" />
    <glyph glyph-name="slash" unicode="/" horiz-adv-x="833" 
d="M-156 -31l809 1524h336l-809 -1524h-336z" />
    <glyph glyph-name="zero" unicode="0" 
d="M722 1163q-93 0 -166 -76q-74 -77 -108 -189q-68 -220 -67 -359q0 -275 184 -275q78 0 142 52q63 52 99 129q101 216 101 483q0 109 -46 172t-139 63zM731 1446q512 0 512 -551q0 -360 -176 -626q-86 -130 -224 -209t-311 -78q-233 0 -360 150t-127 386q0 329 167 614
q81 138 217 226t302 88z" />
    <glyph glyph-name="one" unicode="1" 
d="M770 0h-369l195 920l-342 -11l53 256q182 5 297 61t184 201h285z" />
    <glyph glyph-name="two" unicode="2" 
d="M905 995q0 80 -54 124t-138 44q-123 0 -185 -71q-61 -72 -65 -195h-332q16 252 181 400q164 149 404 149t388 -104t149 -318q0 -242 -241 -416q-145 -104 -441 -237q-25 -12 -145 -72v-4h723l-68 -295h-1138q6 111 47 204t97 155q56 61 144 123t248 143t252 137
q92 57 133 105t41 128z" />
    <glyph glyph-name="three" unicode="3" 
d="M963 752q198 -52 198 -296q0 -120 -57 -220q-58 -100 -152 -154q-181 -103 -409 -101q-229 1 -381 115t-152 297q0 21 6 119h334q-4 -37 -4 -80q0 -74 62 -121t160 -47q99 0 172 58t73 159q0 55 -30 90q-29 35 -73 46q-102 26 -196 14l49 235h82q258 0 258 162
q0 66 -54 100t-126 35q-209 0 -246 -200h-325q31 229 189 356q159 127 396 127q193 0 339 -80q163 -88 163 -304q0 -112 -73 -197t-203 -109v-4z" />
    <glyph glyph-name="four" unicode="4" 
d="M811 1087l-473 -487h373l104 487h-4zM928 0h-348l67 317h-657l59 279l793 831h383l-172 -827h184l-57 -283h-187z" />
    <glyph glyph-name="five" unicode="5" 
d="M764 979q182 0 298 -116t116 -314q0 -256 -182 -412q-182 -155 -429 -155q-248 0 -399 101q-78 52 -120 142t-38 209h338q16 -170 234 -170q112 0 180 71t68 172t-56 159q-55 58 -156 57q-135 0 -219 -102h-311l258 806h907l-61 -294h-623l-82 -244h5q90 90 272 90z" />
    <glyph glyph-name="six" unicode="6" 
d="M1274 1055h-334q-12 135 -166 135q-131 0 -214 -106t-122 -257h4q122 127 312 127t309 -112t119 -297q0 -248 -165 -406q-165 -157 -428 -157t-392 154t-129 402t84 448t252 330q170 130 378 130t350 -98t142 -293zM636 719q-100 0 -166 -70t-67 -169q1 -99 61 -157
q60 -59 158 -59t161 70q62 70 63 168q0 98 -56 158q-54 60 -154 59z" />
    <glyph glyph-name="seven" unicode="7" 
d="M854 1114h-678l66 313h1056l-65 -313q-193 -150 -375 -418q-250 -375 -305 -696h-389q92 422 426 834q94 131 264 276v4z" />
    <glyph glyph-name="eight" unicode="8" 
d="M1249 1072q0 -114 -80 -208t-202 -110v-4q105 -25 167 -109t62 -204t-52 -214t-142 -144q-177 -99 -412 -97q-584 0 -584 409q0 156 99 252t257 123v4q-80 28 -128 96t-48 154q0 210 159 318t370 108t359 -71q175 -82 175 -303zM715 856q96 0 157 48q62 48 62 130
t-60 119t-149 37q-90 0 -157 -40t-66 -128q0 -166 213 -166zM610 641q-102 0 -178 -55q-78 -55 -78 -164q0 -184 242 -184q108 0 180 55t72 155t-68 147q-68 46 -170 46z" />
    <glyph glyph-name="nine" unicode="9" 
d="M10 373h334q6 -68 53 -103q39 -33 113 -32q131 0 214 106t122 256h-4q-122 -127 -312 -127t-311 112t-121 298q0 247 167 405t430 158t392 -155t130 -423q-1 -170 -51 -328t-140 -283q-90 -124 -229 -200q-139 -75 -321 -75t-324 98t-142 293zM434 926q0 -98 56 -158
t156 -59q100 -1 168 69t67 170t-61 157q-60 58 -160 58q-100 1 -164 -69q-62 -70 -62 -168z" />
    <glyph glyph-name="colon" unicode=":" horiz-adv-x="645" 
d="M-10 0l76 360h370l-76 -360h-370zM131 676l76 360h371l-76 -360h-371z" />
    <glyph glyph-name="semicolon" unicode=";" horiz-adv-x="645" 
d="M-4 0l74 360h370l-73 -360q-76 -369 -447 -356l37 163q170 18 197 193h-158zM131 676l76 360h371l-76 -360h-371z" />
    <glyph glyph-name="less" unicode="&#x3c;" horiz-adv-x="1228" 
d="M1135 -16l-1041 389v291l1041 389v-316l-629 -217v-4l629 -217v-315z" />
    <glyph glyph-name="equal" unicode="=" horiz-adv-x="1228" 
d="M1130 920v-295h-1032v295h1032zM1130 412v-295h-1032v295h1032z" />
    <glyph glyph-name="greater" unicode="&#x3e;" horiz-adv-x="1228" 
d="M94 -16v315l629 217v4l-629 217v316l1041 -389v-291z" />
    <glyph glyph-name="question" unicode="?" horiz-adv-x="1175" 
d="M713 1493q225 0 347 -95t122 -278q0 -128 -31 -180q-31 -53 -54 -85t-82 -66q-59 -35 -115 -64t-79 -41q-137 -76 -145 -199h-324q16 158 87 241t249 177q145 72 146 199q0 125 -150 125q-106 0 -156 -55t-57 -168h-348q4 236 158 362t432 127zM233 0l76 360h359
l-76 -360h-359z" />
    <glyph glyph-name="at" unicode="@" horiz-adv-x="1638" 
d="M802 520q83 0 140 60t57 143q0 82 -44 126q-45 44 -123 44q-78 1 -136 -63t-59 -142q0 -78 41 -123t124 -45zM1194 500q74 0 131 79t57 230q0 240 -146 370t-393 130t-402 -163t-155 -422t167 -415q166 -156 430 -155q221 0 387 125h200q-225 -309 -604 -310
q-332 0 -563 216t-231 542t228 546t554 220q285 0 499 -173t214 -446q0 -132 -41 -240q-42 -108 -102 -170t-133 -106q-123 -74 -238 -73q-115 0 -119 102h-4q-76 -102 -203 -102q-127 -1 -226 109t-100 257q0 187 113 327t284 140t261 -119l18 99h193l-90 -488
q-12 -26 -12 -68t26 -42z" />
    <glyph glyph-name="A" unicode="A" horiz-adv-x="1441" 
d="M-158 0l854 1462h385l240 -1462h-383l-35 262h-514l-147 -262h-400zM811 1071l-274 -526h333l-55 526h-4z" />
    <glyph glyph-name="B" unicode="B" horiz-adv-x="1478" 
d="M971 1462q280 0 378 -102q46 -49 62 -99t16 -118q0 -145 -70 -239q-71 -93 -200 -122v-4q94 -25 151 -104q56 -80 56 -182q0 -224 -175 -358t-491 -134h-714l305 1462h682zM817 887q119 0 174 38t56 124q0 115 -193 114h-250l-57 -276h270zM723 299q119 0 189 39t71 147
q0 63 -38 97t-79 42q-41 7 -104 7h-268l-70 -332h299z" />
    <glyph glyph-name="C" unicode="C" horiz-adv-x="1517" 
d="M868 1180q-116 0 -197 -56t-125 -142q-91 -180 -90 -352t61 -260q61 -88 195 -87t219 73t105 185h381q-61 -287 -243 -429t-500 -143q-172 0 -310 76q-83 45 -145 116q-61 71 -102 191t-41 277q0 239 91 433t272 312t445 119q264 0 426 -139q164 -139 160 -418h-380
q12 106 -48 175q-58 69 -174 69z" />
    <glyph glyph-name="D" unicode="D" horiz-adv-x="1554" 
d="M842 1462q301 0 476 -150t175 -468q0 -362 -221 -603t-635 -241h-653l309 1462h549zM686 328q117 0 204 48q145 80 201 280q22 79 21 157q0 322 -289 322h-219l-170 -807h252z" />
    <glyph glyph-name="E" unicode="E" horiz-adv-x="1402" 
d="M-16 0l303 1462h1167l-70 -327h-786l-47 -234h725l-62 -295h-725l-57 -278h793l-70 -328h-1171z" />
    <glyph glyph-name="F" unicode="F" horiz-adv-x="1251" 
d="M-16 0l305 1462h1087l-67 -327h-707l-57 -277h608l-61 -295h-609l-118 -563h-381z" />
    <glyph glyph-name="G" unicode="G" horiz-adv-x="1593" 
d="M752 283q141 0 219 53t121 182h-269l60 283h608l-170 -801h-244l8 147h-4q-71 -94 -163 -136t-233 -42t-238 32q-97 31 -183 101t-136 199t-50 305q0 88 24 200q24 111 58 195q33 85 96 177t146 160t213 111q130 44 288 44q287 0 447 -132t151 -396h-360q4 98 -67 156
q-72 59 -180 59t-196 -52t-138 -138q-103 -175 -101 -384q0 -156 76 -240t217 -83z" />
    <glyph glyph-name="H" unicode="H" horiz-adv-x="1517" 
d="M-23 0l306 1462h381l-111 -532h508l110 532h381l-305 -1462h-381l125 602h-508l-125 -602h-381z" />
    <glyph glyph-name="I" unicode="I" horiz-adv-x="645" 
d="M-16 0l305 1462h381l-305 -1462h-381z" />
    <glyph glyph-name="J" unicode="J" horiz-adv-x="1214" 
d="M434 -31q-160 0 -287 75q-68 40 -107 118q-40 78 -40 184t29 232h350q-31 -111 -31 -170q0 -125 123 -125q84 0 124 43t60 143l203 993h381l-203 -993q-53 -260 -198 -380t-404 -120z" />
    <glyph glyph-name="K" unicode="K" horiz-adv-x="1517" 
d="M-16 0l309 1462h381l-121 -573h4l596 573h504l-699 -602l435 -860h-435l-301 614l-198 -170l-94 -444h-381z" />
    <glyph glyph-name="L" unicode="L" horiz-adv-x="1214" 
d="M-16 0l305 1462h381l-238 -1134h684l-69 -328h-1063z" />
    <glyph glyph-name="M" unicode="M" horiz-adv-x="1896" 
d="M-16 0l307 1462h524l70 -1042h4l504 1042h524l-305 -1462h-361l275 1161h-4l-578 -1161h-293l-86 1161h-4l-217 -1161h-360z" />
    <glyph glyph-name="N" unicode="N" horiz-adv-x="1517" 
d="M-33 0l305 1462h392l342 -956h4l182 956h369l-306 -1462h-391l-338 956h-4l-186 -956h-369z" />
    <glyph glyph-name="O" unicode="O" horiz-adv-x="1593" 
d="M68 616q0 373 225 625t594 252q189 0 338 -68q93 -41 159 -105t110 -180q44 -114 44 -266q0 -397 -222 -651t-605 -254q-307 0 -475 170t-168 477zM449 614q-1 -150 73 -240t210 -91q136 0 236 94q189 179 189 491t-283 312q-106 0 -191 -54q-147 -93 -209 -321
q-25 -97 -25 -191z" />
    <glyph glyph-name="P" unicode="P" horiz-adv-x="1402" 
d="M995 1462q195 0 309 -120t113 -316q0 -266 -175 -410t-454 -143h-337l-101 -473h-381l307 1462h719zM784 786q252 0 252 205q0 94 -60 126t-169 32h-215l-76 -363h268z" />
    <glyph glyph-name="Q" unicode="Q" horiz-adv-x="1593" 
d="M1157 842q0 170 -66 254q-67 84 -217 84q-106 0 -191 -54t-134 -139q-102 -179 -100 -373q-1 -150 73 -240t219 -91q41 0 82 12l-110 133l200 158l117 -142q127 174 127 398zM68 616q0 373 225 625t594 252q189 0 338 -68q93 -41 159 -105t110 -180q44 -114 44 -266
q0 -457 -281 -708l146 -178l-201 -154l-162 197q-143 -61 -329 -62q-307 0 -475 170t-168 477z" />
    <glyph glyph-name="R" unicode="R" horiz-adv-x="1478" 
d="M821 815q256 0 256 201q0 152 -205 151h-280l-74 -352h303zM715 532h-254l-111 -532h-381l303 1462h717q214 0 333 -72q136 -81 136 -307q0 -170 -83 -276t-251 -131v-4q80 -20 115 -78t35 -166l-6 -272q0 -115 22 -156h-383q-12 61 -12 84l10 252q0 100 -45 148t-145 48
z" />
    <glyph glyph-name="S" unicode="S" horiz-adv-x="1366" 
d="M942 1022q0 158 -205 158q-78 0 -135 -34t-57 -97t59 -91q39 -18 166 -52t196 -64q182 -80 243 -212q38 -79 38 -181q0 -205 -175 -343q-174 -138 -464 -137q-290 -1 -451 135t-157 388h381q1 -115 65 -162t189 -47t178 40t53 94t-22 85q-42 56 -262 114t-331 168
q-87 86 -87 240t89 264q165 204 505 205q243 0 408 -107t157 -364h-381z" />
    <glyph glyph-name="T" unicode="T" 
d="M1413 1462l-65 -327h-430l-240 -1135h-381l240 1135h-431l66 327h1241z" />
    <glyph glyph-name="U" unicode="U" horiz-adv-x="1517" 
d="M650 283q150 0 234 76q61 58 100 201q12 48 24 95t14 54l158 753h381l-175 -835q-26 -131 -56 -220t-83 -179q-151 -258 -583 -259q-283 0 -441 121t-157 301q0 133 40 307l166 764h381l-170 -782q-4 -18 -11 -53t-15 -72t-10 -109q-1 -71 57 -117q56 -46 146 -46z" />
    <glyph glyph-name="V" unicode="V" 
d="M272 0l-147 1462h383l59 -1083h4l492 1083h401l-757 -1462h-435z" />
    <glyph glyph-name="W" unicode="W" horiz-adv-x="1933" 
d="M1284 1462v-1065h4l414 1065h391l-694 -1462h-383v989h-4l-398 -989h-383l-102 1462h383l-10 -1065h4l430 1065h348z" />
    <glyph glyph-name="X" unicode="X" horiz-adv-x="1441" 
d="M-160 0l682 772l-342 690h420l174 -450l336 450h459l-608 -696l360 -766h-432l-195 485l-381 -485h-473z" />
    <glyph glyph-name="Y" unicode="Y" horiz-adv-x="1327" 
d="M322 0l116 553l-338 909h394l174 -608l407 608h457l-717 -909l-117 -553h-376z" />
    <glyph glyph-name="Z" unicode="Z" horiz-adv-x="1366" 
d="M-88 0l63 328l916 807h-713l68 327h1196l-66 -327l-942 -807h803l-66 -328h-1259z" />
    <glyph glyph-name="bracketleft" unicode="[" horiz-adv-x="757" 
d="M-80 -356l387 1849h600l-55 -295h-289l-264 -1259h279l-56 -295h-602z" />
    <glyph glyph-name="backslash" unicode="\" horiz-adv-x="833" 
d="M180 1493l809 -1524h-336l-809 1524h336z" />
    <glyph glyph-name="bracketright" unicode="]" horiz-adv-x="757" 
d="M778 1493l-387 -1849h-600l55 295h289l264 1259h-278l55 295h602z" />
    <glyph glyph-name="asciicircum" unicode="^" horiz-adv-x="1228" 
d="M422 680h-326l332 747h373l332 -747h-328l-191 487z" />
    <glyph glyph-name="underscore" unicode="_" horiz-adv-x="1024" 
d="M1024 -256h-1024v102h1024v-102z" />
    <glyph glyph-name="grave" unicode="`" horiz-adv-x="530" 
d="M-92 1481h362l203 -299h-233z" />
    <glyph glyph-name="a" unicode="a" horiz-adv-x="1214" 
d="M330 295q0 -111 141 -111q230 0 264 303h-2q-37 -31 -236 -47q-65 -4 -116 -40t-51 -105zM1126 815q0 -98 -30 -222t-49 -209q-20 -86 -39 -160t-19 -128t15 -96h-342q-8 37 -9 70v32h-4q-90 -133 -321 -133q-158 0 -252 72t-94 227q0 287 366 342q117 17 174 19
q56 2 70 3t42 4t42 7t36 10q22 7 32 17l24 23q21 23 23 73q0 102 -148 102q-88 0 -135 -30t-57 -103h-330q70 358 520 359q485 0 485 -279z" />
    <glyph glyph-name="b" unicode="b" 
d="M578 236q132 0 204 126t72 242q0 222 -174 223q-98 1 -164 -67q-113 -116 -113 -332q-1 -88 45 -140t130 -52zM1202 647q0 -270 -152 -474t-407 -204q-125 0 -198 42t-113 139h-4l-31 -150h-332l305 1462h348l-106 -510h4q111 142 302 142q192 0 288 -128t96 -319z" />
    <glyph glyph-name="c" unicode="c" horiz-adv-x="1175" 
d="M1128 676h-337q2 76 -40 118t-116 44q-139 4 -204 -109t-64 -260q0 -244 176 -244q158 0 202 181h338q-47 -221 -192 -329t-369 -108t-363 119q-140 119 -141 344q0 287 174 474t459 188q213 0 345 -106t132 -312z" />
    <glyph glyph-name="d" unicode="d" 
d="M543 236q91 0 155 68q116 121 115 327q0 90 -47 143t-135 53q-87 0 -151 -63q-115 -114 -113 -322q0 -92 43 -149t133 -57zM415 -31q-204 0 -300 124q-97 125 -97 315q-1 401 257 588q132 97 309 98q233 0 290 -172h5l110 540h348l-305 -1462h-338l29 131h-4
q-100 -162 -304 -162z" />
    <glyph glyph-name="e" unicode="e" horiz-adv-x="1251" 
d="M536 205q166 0 209 117h340q-113 -352 -557 -353q-229 0 -369 119t-141 344q0 287 174 474t459 188q215 0 350 -122t136 -343q-1 -93 -13 -183h-766q-4 -45 -4 -71q16 -170 182 -170zM639 858q-193 0 -256 -217h418q8 93 -35 155t-127 62z" />
    <glyph glyph-name="f" unicode="f" horiz-adv-x="757" 
d="M854 1210l-92 7q-92 0 -120 -43t-42 -111h203l-47 -225h-203l-176 -838h-348l176 838h-170l47 225h170q4 16 23 98t47 131q92 180 360 181q119 0 221 -17z" />
    <glyph glyph-name="g" unicode="g" horiz-adv-x="1251" 
d="M299 -31q0 -61 39 -94t92 -33t88 8t61 30t41 39t28 57q14 40 20 60t16 72t14 70h-4q-40 -61 -118 -94t-160 -33q-178 0 -289 115t-111 284q0 361 234 547q121 96 280 97q254 0 326 -181h4l29 150h334l-179 -858q-70 -336 -202 -457t-424 -121q-191 0 -321 68
q-150 78 -146 274h348zM535 287q121 0 187 95q66 94 66 210q-1 234 -165 235q-125 0 -192 -100q-67 -101 -67 -213q2 -228 171 -227z" />
    <glyph glyph-name="h" unicode="h" 
d="M897 1094q135 0 217 -81t82 -218q0 -88 -37 -230l-127 -565h-348l121 563q20 98 20 147t-34 84q-64 63 -200 11q-22 -7 -41 -27l-32 -32t-25 -44q-13 -31 -23 -51t-28 -106t-20 -94l-94 -451h-348l309 1462h348l-113 -524l4 -4q42 64 138 112t231 48z" />
    <glyph glyph-name="i" unicode="i" horiz-adv-x="606" 
d="M-20 0l221 1063h348l-221 -1063h-348zM633 1462l-55 -266h-349l56 266h348z" />
    <glyph glyph-name="j" unicode="j" horiz-adv-x="606" 
d="M-135 -90q63 0 88 34t41 115l209 1004h346l-205 -987q-51 -250 -140 -341t-310 -91h-168l59 266h80zM633 1462l-55 -266h-349l56 266h348z" />
    <glyph glyph-name="k" unicode="k" horiz-adv-x="1175" 
d="M-20 0l307 1462h348l-160 -757h4l363 358h430l-481 -418l266 -645h-379l-160 428l-123 -102l-67 -326h-348z" />
    <glyph glyph-name="l" unicode="l" horiz-adv-x="606" 
d="M-20 0l305 1462h348l-305 -1462h-348z" />
    <glyph glyph-name="m" unicode="m" horiz-adv-x="1933" 
d="M862 1094q236 0 271 -183q150 182 352 183q156 0 249 -70t93 -213q0 -98 -29 -213l-135 -598h-348l119 565q23 86 22 150q0 113 -117 112q-96 1 -147 -67t-78 -195l-119 -565h-348l115 549q52 183 -4 247q-29 32 -82 31q-94 0 -144 -54t-75 -165l-129 -608h-348l221 1063
h336l-29 -137h4q60 76 154 122t196 46z" />
    <glyph glyph-name="n" unicode="n" 
d="M1196 795q0 -88 -37 -230l-127 -565h-348l121 563q20 98 20 147t-34 84q-64 63 -200 11q-22 -7 -41 -27l-32 -32t-25 -44q-13 -31 -23 -51t-28 -106t-20 -94l-94 -451h-348l221 1063h348l-29 -129h4q42 61 140 110q98 50 233 50t217 -81t82 -218z" />
    <glyph glyph-name="o" unicode="o" horiz-adv-x="1251" 
d="M18 432q0 287 174 474t459 188q223 0 363 -124t139 -345q0 -289 -170 -472t-455 -184q-230 0 -370 119t-140 344zM367 435q0 -89 41 -149t131 -60t153 64q113 117 113 320q0 227 -176 228q-88 0 -151 -71q-111 -127 -111 -332z" />
    <glyph glyph-name="p" unicode="p" 
d="M817 1094q195 0 289 -131t94 -313q0 -381 -247 -578q-128 -102 -300 -103q-223 0 -309 168h-4l-100 -493h-349l295 1419h338l-24 -125h4q119 156 313 156zM587 236q91 0 153 63q112 114 112 321t-182 207q-127 -1 -194 -123t-66 -262q0 -92 43 -149t134 -57z" />
    <glyph glyph-name="q" unicode="q" 
d="M1249 1063l-297 -1419h-348l98 471h-4q-121 -145 -305 -145t-279 117q-96 117 -96 305t62 342t193 256q132 103 311 104q122 0 192 -45t107 -140h4l31 154h331zM542 236q90 0 154 63q118 115 117 313q0 92 -45 154t-134 61t-154 -67q-115 -118 -113 -322q0 -92 43 -147
t132 -55z" />
    <glyph glyph-name="r" unicode="r" horiz-adv-x="872" 
d="M729 788q-133 0 -203 -78t-96 -223l-102 -487h-348l221 1063h338l-39 -174h4q55 96 142 150q86 55 178 55t130 -19l-67 -307q-68 20 -158 20z" />
    <glyph glyph-name="s" unicode="s" horiz-adv-x="1099" 
d="M456 195q174 0 173 108q-1 42 -17 57t-27 22t-38 15t-51 15t-142 33q-118 27 -195 89t-77 182q0 222 173 305q147 71 335 72q187 1 312 -69q67 -36 103 -106t29 -168h-315q4 59 -28 94t-99 35q-66 0 -114 -25t-48 -67t20 -56q48 -34 90 -43q43 -10 75 -17
q210 -46 286 -110q76 -63 76 -207q0 -385 -545 -385q-441 0 -455 379h320q-2 -66 39 -110q46 -43 120 -43z" />
    <glyph glyph-name="t" unicode="t" horiz-adv-x="796" 
d="M461 313q-1 -39 27 -49t66 -10t77 3t47 3l-53 -260q-143 -12 -208 -12t-116 6q-209 25 -209 178q0 88 41 281l82 385h-176l47 225h176l68 319h348l-66 -319h219l-47 -225h-221l-84 -402q-18 -84 -18 -123z" />
    <glyph glyph-name="u" unicode="u" 
d="M352 -31q-100 0 -170 34t-98 86q-48 88 -49 162q0 73 20 167l138 645h348l-121 -590q-14 -66 -14 -127q0 -111 114 -110q104 0 161 65q56 66 81 186l123 576h348l-225 -1063h-334l31 145h-5q-117 -176 -348 -176z" />
    <glyph glyph-name="v" unicode="v" horiz-adv-x="1099" 
d="M186 0l-131 1063h353l43 -750h4l346 750h364l-573 -1063h-406z" />
    <glyph glyph-name="w" unicode="w" horiz-adv-x="1705" 
d="M184 0l-112 1063h346l26 -737h5l305 737h336l22 -737h4l309 737h367l-553 -1063h-360l-23 721h-4l-307 -721h-361z" />
    <glyph glyph-name="x" unicode="x" horiz-adv-x="1099" 
d="M-139 0l481 563l-242 500h361l100 -275l195 275h387l-434 -516l268 -547h-359l-133 313l-239 -313h-385z" />
    <glyph glyph-name="y" unicode="y" horiz-adv-x="1099" 
d="M64 -90q50 0 71 3q46 7 83 76q17 32 22 38l-197 1036h354l80 -748h4l318 748h364l-540 -1014q-8 -13 -42 -75t-61 -105t-74 -99t-93 -76q-119 -50 -290 -50q-54 0 -169 12l57 262q63 -8 113 -8z" />
    <glyph glyph-name="z" unicode="z" horiz-adv-x="1099" 
d="M-86 0l57 256l643 551h-497l53 256h924l-54 -256l-645 -551h578l-55 -256h-1004z" />
    <glyph glyph-name="braceleft" unicode="{" horiz-adv-x="757" 
d="M772 1247q-51 -1 -85 -27t-43 -49t-19 -57l-70 -330q-15 -80 -69 -131t-101 -65t-100 -19v-4q130 -15 165 -60q19 -26 19 -73t-16 -123l-54 -254q-18 -88 -18 -114q0 -51 94 -52h80l-51 -245h-230q-100 0 -161 46t-62 144q0 49 10 98l68 344q10 51 10 84q0 84 -170 84
l51 246q39 0 78 6t87 37t61 82l80 385q59 293 333 293h230l-51 -246h-66z" />
    <glyph glyph-name="bar" unicode="|" horiz-adv-x="454" 
d="M80 -438v2048h295v-2048h-295z" />
    <glyph glyph-name="braceright" unicode="}" horiz-adv-x="757" 
d="M-78 -111q51 0 85 27q34 28 43 50t20 57l69 329q23 113 103 160t168 53v4q-129 15 -165 62t-3 196l53 254q18 88 18 115q0 51 -94 51h-80l51 246h230q100 0 162 -46t61 -144q0 -49 -10 -99l-68 -344q-10 -51 -10 -86q0 -84 170 -84l-51 -246q-37 0 -77 -6t-89 -37
t-59 -82l-80 -382q-31 -154 -122 -224t-212 -69h-230l52 245h65z" />
    <glyph glyph-name="asciitilde" unicode="~" horiz-adv-x="1228" 
d="M828 301q-90 0 -208 70q-118 69 -228 69t-177 -147l-74 266q86 176 256 176q90 0 272 -85q125 -54 164 -54q41 0 77 27t52 47q15 20 52 73l73 -266q-55 -84 -112 -130t-147 -46z" />
    <glyph glyph-name="Euro" 
d="M938 1169q-197 0 -299 -206h514l-92 -175h-479q-18 -72 -21 -143h428l-98 -174h-322q12 -103 78 -161t170 -58q152 0 332 125l-45 -316q-152 -78 -340 -77q-230 0 -368 131t-148 356h-180l92 174h90q4 59 22 143h-159l92 175h117q201 483 671 483q175 -1 363 -103
l-144 -274q-143 100 -274 100z" />
    <glyph glyph-name="Euro" unicode="&#x20ac;" 
d="M938 1169q-197 0 -299 -206h514l-92 -175h-479q-18 -72 -21 -143h428l-98 -174h-322q12 -103 78 -161t170 -58q152 0 332 125l-45 -316q-152 -78 -340 -77q-230 0 -368 131t-148 356h-180l92 174h90q4 59 22 143h-159l92 175h117q201 483 671 483q175 -1 363 -103
l-144 -274q-143 100 -274 100z" />
    <glyph glyph-name="uni00A0" unicode="&#xa0;" horiz-adv-x="645" 
 />
    <glyph glyph-name="exclamdown" unicode="&#xa1;" horiz-adv-x="645" 
d="M586 1094l-76 -361h-358l75 361h359zM-82 -356l76 366l227 611h170l-35 -611l-77 -366h-361z" />
    <glyph glyph-name="cent" unicode="&#xa2;" 
d="M516 238l125 600q-100 -20 -162 -116q-61 -96 -61 -266q0 -171 98 -218zM70 451q0 293 172 468t452 175l35 161h117l-37 -170q360 -55 371 -411h-338q4 121 -86 155l-127 -604q127 20 168 185h338q-92 -440 -562 -441l-43 -207h-114l45 215q-186 27 -289 149
q-102 122 -102 325z" />
    <glyph glyph-name="sterling" unicode="&#xa3;" 
d="M942 1057q0 69 -45 105t-128 36t-133 -51t-50 -119t35 -203h276l-49 -215h-211q20 -174 -170 -329v-5q55 29 125 29t154 -20q85 -20 128 -21q96 0 193 72l92 -250q-88 -68 -164 -92t-167 -25q-91 0 -236 40q-146 40 -242 40t-213 -72l-98 218q137 82 203 178t47 237h-205
l45 215h131q-45 111 -45 212t51 191q92 161 313 233q97 32 195 32q224 0 364 -101t140 -296q0 -33 -12 -103h-332q8 31 8 64z" />
    <glyph glyph-name="currency" unicode="&#xa4;" 
d="M645 1257q178 0 320 -104l88 90l123 -123l-91 -90q103 -141 103 -315t-103 -316l91 -90l-123 -123l-90 90q-141 -104 -317 -104t-312 98l-92 -92l-123 123l90 92q-107 141 -107 317t101 320l-92 90l122 123l93 -90q141 104 319 104zM397 715q0 -123 72 -200t176 -77
t176 77t72 200t-72 199t-176 77q-104 -1 -176 -77t-72 -199z" />
    <glyph glyph-name="yen" unicode="&#xa5;" 
d="M313 0l56 268h-361l45 215h361l12 64l-23 84h-319l43 215h213l-178 616h381l133 -616h4l391 616h381l-434 -616h211l-43 -215h-320l-59 -84l-12 -64h360l-45 -215h-360l-56 -268h-381z" />
    <glyph glyph-name="brokenbar" unicode="&#xa6;" horiz-adv-x="454" 
d="M80 -182v512h295v-512h-295zM375 1354v-512h-295v512h295z" />
    <glyph glyph-name="section" unicode="&#xa7;" 
d="M74 643q0 123 81 210t203 99q-57 76 -57 172q0 180 145 274q146 94 330 95q184 0 304 -80t120 -231v-45q0 -29 2 -43h-299q2 6 2 18v21q0 45 -33 71q-35 33 -97 33t-104 -32t-42 -86q-1 -54 29 -81t79 -54q49 -28 57 -32t15 -8l199 -121q184 -115 184 -309
q0 -113 -78 -206t-199 -109q68 -67 68 -173q0 -195 -126 -288q-149 -113 -360 -113q-211 1 -345 113t-111 309h303q-2 -63 38 -114t118 -52q156 0 155 119q0 55 -39 96t-116 90l-258 168q-168 104 -168 289zM897 465q0 74 -106 147l-162 113q-7 6 -25 18q-18 13 -26 19
q-33 26 -86 26t-89 -27q-35 -28 -34 -84t43 -91q14 -12 43 -33l209 -145q16 -10 46 -33t75 -23q46 0 79 34t33 79z" />
    <glyph glyph-name="dieresis" unicode="&#xa8;" horiz-adv-x="530" 
d="M291 1198h-316l56 266h315zM727 1198h-315l55 266h315z" />
    <glyph glyph-name="copyright" unicode="&#xa9;" horiz-adv-x="1638" 
d="M792 1493q344 0 576 -199q110 -94 176 -240t66 -322t-66 -323q-66 -146 -176 -241q-234 -199 -576 -199q-182 0 -359 87q-177 86 -291 264t-113 411q0 233 113 411q114 177 291 264t359 87zM817 164q223 0 380 161t157 407t-157 406t-380 160t-378 -160t-155 -407
t156 -407q154 -160 377 -160zM850 299q-188 0 -307 125q-119 126 -119 316t115 314t307 124q143 0 239 -81t121 -233h-184q-25 119 -176 119q-86 1 -136 -65t-50 -174t52 -180q54 -71 138 -70q164 0 172 127h192q-18 -152 -121 -237t-243 -85z" />
    <glyph glyph-name="ordfeminine" unicode="&#xaa;" horiz-adv-x="770" 
d="M307 948q0 -62 78 -63t117 33t55 108l8 39q-41 -11 -149 -33t-109 -84zM270 723q-219 0 -219 176q0 74 50 136t128 83q53 18 166 32t133 17q70 14 70 60q0 27 -28 42t-66 15q-98 0 -127 -72h-242q29 133 146 191q94 43 260 43q238 0 293 -84q24 -34 24 -94t-65 -338
q-23 -119 -13 -189h-256q-6 25 -2 60q-147 -78 -252 -78z" />
    <glyph glyph-name="guillemotleft" unicode="&#xab;" horiz-adv-x="909" 
d="M289 119l-269 287l64 303l381 249l-59 -284l-218 -144l152 -163zM692 119l-268 287l63 303l381 249l-59 -284l-217 -144l151 -163z" />
    <glyph glyph-name="logicalnot" unicode="&#xac;" horiz-adv-x="1228" 
d="M836 246v379h-738v295h1032v-674h-294z" />
    <glyph glyph-name="uni00AD" unicode="&#xad;" horiz-adv-x="833" 
d="M664 410h-631l61 295h631z" />
    <glyph glyph-name="registered" unicode="&#xae;" horiz-adv-x="1638" 
d="M702 664v-345h-194v826h309q188 0 269 -51q81 -52 81 -178t-60 -181t-175 -59l211 -357h-195l-188 345h-58zM702 807h152q59 1 89 23t30 83q0 88 -160 88h-111v-194zM792 1493q344 0 576 -199q110 -94 176 -240t66 -322t-66 -323q-66 -146 -176 -241q-234 -199 -576 -199
q-182 0 -359 87q-177 86 -291 264t-113 411q0 233 113 411q114 177 291 264t359 87zM817 164q223 0 380 161t157 407t-157 406t-380 160t-378 -160t-155 -407t156 -407q154 -160 377 -160z" />
    <glyph glyph-name="macron" unicode="&#xaf;" horiz-adv-x="530" 
d="M758 1251h-781l33 162h781z" />
    <glyph glyph-name="degree" unicode="&#xb0;" horiz-adv-x="819" 
d="M137 1118q0 136 96 232q95 96 231 96t232 -96t96 -232t-96 -231q-96 -96 -231 -96t-232 96q-96 96 -96 231zM465 1303q-74 1 -120 -53t-46 -132t46 -131t120 -53t120 53t46 131t-46 132t-120 53z" />
    <glyph glyph-name="plusminus" unicode="&#xb1;" horiz-adv-x="1228" 
d="M467 854v207h295v-207h368v-295h-368v-207h-295v207h-369v295h369zM98 -25v295h1032v-295h-1032z" />
    <glyph glyph-name="twosuperior" unicode="&#xb2;" horiz-adv-x="774" 
d="M614 1180q0 33 -27 52q-28 19 -69 19q-131 0 -174 -172h-256q35 171 158 269t311 98q129 0 221 -51t92 -176q0 -168 -206 -291q-23 -12 -131 -62t-158 -102h397l-41 -195h-747q41 186 206 299q60 40 184 104t140 74q100 56 100 134z" />
    <glyph glyph-name="threesuperior" unicode="&#xb3;" horiz-adv-x="774" 
d="M598 1172q0 38 -29 58q-29 22 -81 22t-93 -31t-51 -84h-256q37 147 148 227q119 82 315 82t271 -105q32 -45 32 -115t-45 -128q-45 -57 -131 -70v-4q125 -18 125 -167t-132 -227t-325 -79q-132 0 -207 34t-107 81q-32 46 -32 112t12 111h252q-8 -25 -8 -55q0 -88 129 -89
q61 0 112 26q50 26 50 77q0 86 -137 86h-29q-20 0 -31 -2l35 168l59 -2q55 0 105 18q49 18 49 56z" />
    <glyph glyph-name="acute" unicode="&#xb4;" horiz-adv-x="530" 
d="M240 1182l221 299h379l-367 -299h-233z" />
    <glyph glyph-name="mu" unicode="&#xb5;" 
d="M441 -31q-65 0 -103 45l-78 -370h-348l297 1419h348l-121 -590q-14 -66 -14 -127q0 -111 115 -110q104 0 160 66t81 185l123 576h348l-225 -1063h-334l31 145h-4q-49 -74 -130 -125t-146 -51z" />
    <glyph glyph-name="paragraph" unicode="&#xb6;" horiz-adv-x="1269" 
d="M123 1026q0 102 46 194t130 144q165 100 412 98h643l-375 -1808h-246l338 1624h-199l-337 -1624h-246l227 1094q-142 0 -258 48q-62 26 -99 78q-36 50 -36 152z" />
    <glyph glyph-name="periodcentered" unicode="&#xb7;" horiz-adv-x="645" 
d="M133 575q0 79 56 135q57 56 135 56t134 -56t56 -134t-56 -135q-56 -56 -134 -56t-135 56q-56 56 -56 134z" />
    <glyph glyph-name="cedilla" unicode="&#xb8;" horiz-adv-x="530" 
d="M47 -373q117 0 117 88q0 61 -86 63q-38 0 -66 -14l-45 52l139 184h117l-106 -129v-4q23 6 77 6t105 -43t51 -111q-10 -203 -278 -198q-119 0 -232 57l51 90q80 -41 156 -41z" />
    <glyph glyph-name="onesuperior" unicode="&#xb9;" horiz-adv-x="774" 
d="M549 569h-256l104 502h-223l39 184q113 0 200 40t109 132h205z" />
    <glyph glyph-name="ordmasculine" unicode="&#xba;" horiz-adv-x="792" 
d="M557 1446q143 0 239 -67t95 -201q0 -205 -140 -330t-345 -125q-143 0 -238 69q-94 69 -94 205q0 199 141 324t342 125zM635 1117q0 66 -30 100q-31 34 -103 34q-72 -1 -122 -65t-50 -150q0 -119 116 -118q86 0 138 66q51 67 51 133z" />
    <glyph glyph-name="guillemotright" unicode="&#xbb;" horiz-adv-x="909" 
d="M162 958l268 -286l-63 -303l-381 -250l59 284l217 144l-151 164zM565 958l269 -286l-64 -303l-381 -250l60 284l217 144l-152 164z" />
    <glyph glyph-name="onequarter" unicode="&#xbc;" horiz-adv-x="1935" 
d="M551 -55h-211l805 1538h211zM459 569h-256l104 502h-223l39 184q113 0 200 40t109 132h205zM1638 0h-256l37 178h-422l39 180l516 500h265l-101 -485h127l-41 -195h-127zM1462 373l58 280h-4l-291 -280h237z" />
    <glyph glyph-name="onehalf" unicode="&#xbd;" horiz-adv-x="1935" 
d="M569 -55h-211l805 1538h211zM1620 610q0 32 -28 52t-68 20q-131 0 -174 -172h-256q36 172 158 269t311 98q129 1 221 -51t92 -177q0 -168 -207 -291q-23 -12 -133 -63t-156 -100h398l-41 -195h-748q41 186 207 299q59 39 183 103t165 88q41 23 59 55q17 33 17 65z
M487 569h-256l105 502h-223l39 184q114 0 200 40t109 132h205z" />
    <glyph glyph-name="threequarters" unicode="&#xbe;" horiz-adv-x="1935" 
d="M715 -55h-211l805 1538h211zM1669 0h-256l37 178h-422l39 180l516 500h264l-100 -485h127l-41 -195h-127zM1493 373l57 280h-4l-291 -280h238zM604 1172q0 38 -29 58q-29 22 -81 22t-93 -31t-51 -84h-256q37 147 148 227q119 82 315 82t271 -105q32 -45 32 -115t-45 -128
q-45 -57 -131 -70v-4q125 -18 125 -167t-132 -227t-325 -79q-132 0 -207 34t-107 81q-32 46 -32 112t12 111h252q-8 -25 -8 -55q0 -88 129 -89q61 0 112 26q50 26 50 77q0 86 -137 86h-29q-20 0 -31 -2l35 168l60 -2q55 0 104 18t49 56z" />
    <glyph glyph-name="questiondown" unicode="&#xbf;" horiz-adv-x="1175" 
d="M389 -387q-223 0 -346 94t-123 262t62 245q62 76 161 130q23 12 68 35t70 37q137 76 145 198h324q-18 -160 -87 -242t-249 -175q-146 -73 -146 -191q0 -128 150 -127q106 0 156 54t57 163h348q-4 -229 -159 -356t-431 -127zM868 1094l-75 -361h-359l76 361h358z" />
    <glyph glyph-name="Agrave" unicode="&#xc0;" horiz-adv-x="1441" 
d="M502 1862h362l203 -299h-233zM-158 0l854 1462h385l240 -1462h-383l-35 262h-514l-147 -262h-400zM811 1071l-274 -526h333l-55 526h-4z" />
    <glyph glyph-name="Aacute" unicode="&#xc1;" horiz-adv-x="1441" 
d="M729 1563l221 299h379l-366 -299h-234zM-158 0l854 1462h385l240 -1462h-383l-35 262h-514l-147 -262h-400zM811 1071l-274 -526h333l-55 526h-4z" />
    <glyph glyph-name="Acircumflex" unicode="&#xc2;" horiz-adv-x="1441" 
d="M774 1563h-262l297 299h299l170 -299h-256l-92 168zM-158 0l854 1462h385l240 -1462h-383l-35 262h-514l-147 -262h-400zM811 1071l-274 -526h333l-55 526h-4z" />
    <glyph glyph-name="Atilde" unicode="&#xc3;" horiz-adv-x="1441" 
d="M1032 1579q-53 0 -135 29l-84 28q-71 23 -93 23t-44 -23t-31 -61h-160q14 104 82 187t166 83q41 0 113 -26l92 -35q55 -23 98 -23q51 0 76 90h160q-55 -272 -240 -272zM-158 0l854 1462h385l240 -1462h-383l-35 262h-514l-147 -262h-400zM811 1071l-274 -526h333l-55 526
h-4z" />
    <glyph glyph-name="Adieresis" unicode="&#xc4;" horiz-adv-x="1441" 
d="M844 1579h-316l56 266h315zM1280 1579h-315l55 266h315zM-158 0l854 1462h385l240 -1462h-383l-35 262h-514l-147 -262h-400zM811 1071l-274 -526h333l-55 526h-4z" />
    <glyph glyph-name="Aring" unicode="&#xc5;" horiz-adv-x="1441" 
d="M913 1626q45 0 76 32t31 77t-31 75t-76 29q-45 0 -75 -30q-30 -31 -31 -75q1 -44 31 -76t75 -32zM913 1522q-92 0 -155 60q-64 60 -64 152t64 150q64 60 155 60t155 -58t64 -152q0 -92 -63 -152q-64 -60 -156 -60zM-158 0l854 1462h385l240 -1462h-383l-35 262h-514
l-147 -262h-400zM811 1071l-274 -526h333l-55 526h-4z" />
    <glyph glyph-name="AE" unicode="&#xc6;" horiz-adv-x="2086" 
d="M-213 0l1008 1462h1343l-70 -327h-675l-50 -234h629l-61 -295h-629l-57 -278h688l-70 -328h-1063l56 262h-437l-172 -262h-440zM895 545l123 590h-45l-387 -590h309z" />
    <glyph glyph-name="Ccedilla" unicode="&#xc7;" horiz-adv-x="1517" 
d="M645 -285q0 62 -80 64q-43 0 -71 -15l-45 52l122 161q-57 12 -88 19q-175 43 -291 199t-116 414q0 528 363 765q181 119 445 119t427 -139q164 -139 159 -418h-380q12 106 -48 175t-174 69q-116 0 -197 -56t-125 -142q-91 -180 -90 -352t61 -260q61 -88 195 -87t219 73
t105 185h381q-123 -569 -739 -572l-80 -98v-4q24 6 78 6t104 -43t51 -111q-10 -203 -278 -198q-118 0 -231 57l51 90q80 -41 155 -41q117 0 117 88z" />
    <glyph glyph-name="Egrave" unicode="&#xc8;" horiz-adv-x="1402" 
d="M510 1862h362l203 -299h-233zM-16 0l303 1462h1167l-70 -327h-786l-47 -234h725l-62 -295h-725l-57 -278h793l-70 -328h-1171z" />
    <glyph glyph-name="Eacute" unicode="&#xc9;" horiz-adv-x="1402" 
d="M715 1563l221 299h379l-367 -299h-233zM-16 0l303 1462h1167l-70 -327h-786l-47 -234h725l-62 -295h-725l-57 -278h793l-70 -328h-1171z" />
    <glyph glyph-name="Ecircumflex" unicode="&#xca;" horiz-adv-x="1402" 
d="M752 1563h-263l297 299h299l170 -299h-256l-92 168zM-16 0l303 1462h1167l-70 -327h-786l-47 -234h725l-62 -295h-725l-57 -278h793l-70 -328h-1171z" />
    <glyph glyph-name="Edieresis" unicode="&#xcb;" horiz-adv-x="1402" 
d="M819 1579h-315l55 266h315zM1255 1579h-315l55 266h316zM-16 0l303 1462h1167l-70 -327h-786l-47 -234h725l-62 -295h-725l-57 -278h793l-70 -328h-1171z" />
    <glyph glyph-name="Igrave" unicode="&#xcc;" horiz-adv-x="645" 
d="M109 1864h362l203 -299h-234zM-16 0l305 1462h381l-305 -1462h-381z" />
    <glyph glyph-name="Iacute" unicode="&#xcd;" horiz-adv-x="645" 
d="M293 1563l221 299h379l-367 -299h-233zM-16 0l305 1462h381l-305 -1462h-381z" />
    <glyph glyph-name="Icircumflex" unicode="&#xce;" horiz-adv-x="645" 
d="M365 1563h-263l297 299h299l170 -299h-256l-92 168zM-16 0l305 1462h381l-305 -1462h-381z" />
    <glyph glyph-name="Idieresis" unicode="&#xcf;" horiz-adv-x="645" 
d="M428 1579h-315l55 266h315zM864 1579h-315l55 266h316zM-16 0l305 1462h381l-305 -1462h-381z" />
    <glyph glyph-name="Eth" unicode="&#xd0;" horiz-adv-x="1554" 
d="M842 1462q301 0 476 -150t175 -468q0 -362 -221 -603t-635 -241h-653l127 606h-209l65 295h207l119 561h549zM686 328q117 0 204 48q145 80 201 280q22 79 21 157q0 322 -289 322h-219l-49 -234h281l-60 -295h-284l-58 -278h252z" />
    <glyph glyph-name="Ntilde" unicode="&#xd1;" horiz-adv-x="1517" 
d="M1069 1579q-53 0 -135 29l-84 28q-70 23 -92 23t-46 -23q-22 -23 -30 -61h-160q14 104 82 187t166 83q41 0 113 -26l92 -35q55 -23 98 -23q51 0 76 90h160q-55 -272 -240 -272zM-33 0l305 1462h392l342 -956h4l182 956h369l-306 -1462h-391l-338 956h-4l-186 -956h-369z
" />
    <glyph glyph-name="Ograve" unicode="&#xd2;" horiz-adv-x="1593" 
d="M498 1862h362l203 -299h-234zM68 616q0 373 225 625t594 252q189 0 338 -68q93 -41 159 -105t110 -180q44 -114 44 -266q0 -397 -222 -651t-605 -254q-307 0 -475 170t-168 477zM449 614q-1 -150 73 -240t210 -91q136 0 236 94q189 179 189 491t-283 312q-106 0 -191 -54
q-147 -93 -209 -321q-25 -97 -25 -191z" />
    <glyph glyph-name="Oacute" unicode="&#xd3;" horiz-adv-x="1593" 
d="M754 1563l221 299h379l-367 -299h-233zM68 616q0 373 225 625t594 252q189 0 338 -68q93 -41 159 -105t110 -180q44 -114 44 -266q0 -397 -222 -651t-605 -254q-307 0 -475 170t-168 477zM449 614q-1 -150 73 -240t210 -91q136 0 236 94q189 179 189 491t-283 312
q-106 0 -191 -54q-147 -93 -209 -321q-25 -97 -25 -191z" />
    <glyph glyph-name="Ocircumflex" unicode="&#xd4;" horiz-adv-x="1593" 
d="M817 1563h-262l297 299h299l170 -299h-256l-92 168zM68 616q0 373 225 625t594 252q189 0 338 -68q93 -41 159 -105t110 -180q44 -114 44 -266q0 -397 -222 -651t-605 -254q-307 0 -475 170t-168 477zM449 614q-1 -150 73 -240t210 -91q136 0 236 94q189 179 189 491
t-283 312q-106 0 -191 -54q-147 -93 -209 -321q-25 -97 -25 -191z" />
    <glyph glyph-name="Otilde" unicode="&#xd5;" horiz-adv-x="1593" 
d="M1087 1579q-53 0 -135 29l-84 28q-70 23 -92 23t-46 -23q-22 -23 -30 -61h-159q14 104 82 187t165 83q41 0 113 -26l92 -35q55 -23 99 -23q50 0 75 90h160q-55 -272 -240 -272zM68 616q0 373 225 625t594 252q189 0 338 -68q93 -41 159 -105t110 -180q44 -114 44 -266
q0 -397 -222 -651t-605 -254q-307 0 -475 170t-168 477zM449 614q-1 -150 73 -240t210 -91q136 0 236 94q189 179 189 491t-283 312q-106 0 -191 -54q-147 -93 -209 -321q-25 -97 -25 -191z" />
    <glyph glyph-name="Odieresis" unicode="&#xd6;" horiz-adv-x="1593" 
d="M872 1579h-315l55 266h316zM1309 1579h-316l56 266h315zM68 616q0 373 225 625t594 252q189 0 338 -68q93 -41 159 -105t110 -180q44 -114 44 -266q0 -397 -222 -651t-605 -254q-307 0 -475 170t-168 477zM449 614q-1 -150 73 -240t210 -91q136 0 236 94q189 179 189 491
t-283 312q-106 0 -191 -54q-147 -93 -209 -321q-25 -97 -25 -191z" />
    <glyph glyph-name="multiply" unicode="&#xd7;" horiz-adv-x="1228" 
d="M406 518l-295 295l208 209l295 -295l295 295l209 -209l-295 -295l295 -295l-209 -209l-295 295l-295 -295l-208 209z" />
    <glyph glyph-name="Oslash" unicode="&#xd8;" horiz-adv-x="1593" 
d="M1538 874q0 -397 -222 -651t-605 -254q-297 0 -463 160l-209 -192l-96 98l219 203q-94 150 -94 378q0 373 225 625t594 252q297 0 469 -152l194 179l95 -105l-197 -180q90 -143 90 -361zM731 283q137 0 237 94q99 94 144 218t45 222t-10 141l-629 -579q76 -96 213 -96z
M874 1180q-106 0 -191 -54t-134 -139q-102 -179 -100 -373q0 -57 12 -102l629 582q-66 86 -216 86z" />
    <glyph glyph-name="Ugrave" unicode="&#xd9;" horiz-adv-x="1517" 
d="M455 1862h362l203 -299h-234zM650 283q150 0 234 76q61 58 100 201q12 48 24 95t14 54l158 753h381l-175 -835q-26 -131 -56 -220t-83 -179q-151 -258 -583 -259q-283 0 -441 121t-157 301q0 133 40 307l166 764h381l-170 -782q-4 -18 -11 -53t-15 -72t-10 -109
q-1 -71 57 -117q56 -46 146 -46z" />
    <glyph glyph-name="Uacute" unicode="&#xda;" horiz-adv-x="1517" 
d="M801 1563l221 299h379l-367 -299h-233zM650 283q150 0 234 76q61 58 100 201q12 48 24 95t14 54l158 753h381l-175 -835q-26 -131 -56 -220t-83 -179q-151 -258 -583 -259q-283 0 -441 121t-157 301q0 133 40 307l166 764h381l-170 -782q-4 -18 -11 -53t-15 -72t-10 -109
q-1 -71 57 -117q56 -46 146 -46z" />
    <glyph glyph-name="Ucircumflex" unicode="&#xdb;" horiz-adv-x="1517" 
d="M809 1563h-262l297 299h299l170 -299h-256l-92 168zM650 283q150 0 234 76q61 58 100 201q12 48 24 95t14 54l158 753h381l-175 -835q-26 -131 -56 -220t-83 -179q-151 -258 -583 -259q-283 0 -441 121t-157 301q0 133 40 307l166 764h381l-170 -782q-4 -18 -11 -53
t-15 -72t-10 -109q-1 -71 57 -117q56 -46 146 -46z" />
    <glyph glyph-name="Udieresis" unicode="&#xdc;" horiz-adv-x="1517" 
d="M866 1579h-315l55 266h316zM1303 1579h-316l55 266h316zM650 283q150 0 234 76q61 58 100 201q12 48 24 95t14 54l158 753h381l-175 -835q-26 -131 -56 -220t-83 -179q-151 -258 -583 -259q-283 0 -441 121t-157 301q0 133 40 307l166 764h381l-170 -782q-4 -18 -11 -53
t-15 -72t-10 -109q-1 -71 57 -117q56 -46 146 -46z" />
    <glyph glyph-name="Yacute" unicode="&#xdd;" horiz-adv-x="1327" 
d="M686 1563l221 299h379l-366 -299h-234zM322 0l116 553l-338 909h394l174 -608l407 608h457l-717 -909l-117 -553h-376z" />
    <glyph glyph-name="Thorn" unicode="&#xde;" horiz-adv-x="1402" 
d="M961 1274q195 0 309 -120t112 -316q0 -266 -175 -410t-453 -143h-340l-64 -285h-381l307 1462h383l-36 -188h338zM750 598q252 0 251 205q0 94 -60 126t-169 32h-215l-76 -363h269z" />
    <glyph glyph-name="germandbls" unicode="&#xdf;" horiz-adv-x="1251" 
d="M883 1087q0 140 -167 140q-81 1 -119 -57t-60 -179l-209 -991h-348l221 1055q88 438 540 438q207 0 342 -87t136 -267q0 -131 -74 -217t-201 -117v-4q221 -49 221 -303q1 -254 -159 -382t-394 -128q-127 0 -184 12l55 262q35 -8 78 -8q121 0 189 72t68 183
q-1 207 -243 187l43 201q104 -14 185 32q80 46 80 158z" />
    <glyph glyph-name="agrave" unicode="&#xe0;" horiz-adv-x="1214" 
d="M379 1481h362l203 -299h-233zM330 295q0 -111 141 -111q230 0 264 303h-2q-37 -31 -236 -47q-65 -4 -116 -40t-51 -105zM1126 815q0 -98 -30 -222t-49 -209q-20 -86 -39 -160t-19 -128t15 -96h-342q-8 37 -9 70v32h-4q-90 -133 -321 -133q-158 0 -252 72t-94 227
q0 287 366 342q117 17 174 19q56 2 70 3t42 4t42 7t36 10q22 7 32 17l24 23q21 23 23 73q0 102 -148 102q-88 0 -135 -30t-57 -103h-330q70 358 520 359q485 0 485 -279z" />
    <glyph glyph-name="aacute" unicode="&#xe1;" horiz-adv-x="1214" 
d="M565 1182l221 299h379l-366 -299h-234zM330 295q0 -111 141 -111q230 0 264 303h-2q-37 -31 -236 -47q-65 -4 -116 -40t-51 -105zM1126 815q0 -98 -30 -222t-49 -209q-20 -86 -39 -160t-19 -128t15 -96h-342q-8 37 -9 70v32h-4q-90 -133 -321 -133q-158 0 -252 72
t-94 227q0 287 366 342q117 17 174 19q56 2 70 3t42 4t42 7t36 10q22 7 32 17l24 23q21 23 23 73q0 102 -148 102q-88 0 -135 -30t-57 -103h-330q70 358 520 359q485 0 485 -279z" />
    <glyph glyph-name="acircumflex" unicode="&#xe2;" horiz-adv-x="1214" 
d="M571 1182h-262l297 299h299l170 -299h-256l-92 168zM330 295q0 -111 141 -111q230 0 264 303h-2q-37 -31 -236 -47q-65 -4 -116 -40t-51 -105zM1126 815q0 -98 -30 -222t-49 -209q-20 -86 -39 -160t-19 -128t15 -96h-342q-8 37 -9 70v32h-4q-90 -133 -321 -133
q-158 0 -252 72t-94 227q0 287 366 342q117 17 174 19q56 2 70 3t42 4t42 7t36 10q22 7 32 17l24 23q21 23 23 73q0 102 -148 102q-88 0 -135 -30t-57 -103h-330q70 358 520 359q485 0 485 -279z" />
    <glyph glyph-name="atilde" unicode="&#xe3;" horiz-adv-x="1214" 
d="M872 1198q-53 0 -135 29l-84 28q-71 23 -93 23t-44 -23t-31 -61h-159q14 104 82 187t165 83q41 0 113 -26l92 -35q55 -23 99 -23q50 0 75 90h160q-55 -272 -240 -272zM330 295q0 -111 141 -111q230 0 264 303h-2q-37 -31 -236 -47q-65 -4 -116 -40t-51 -105zM1126 815
q0 -98 -30 -222t-49 -209q-20 -86 -39 -160t-19 -128t15 -96h-342q-8 37 -9 70v32h-4q-90 -133 -321 -133q-158 0 -252 72t-94 227q0 287 366 342q117 17 174 19q56 2 70 3t42 4t42 7t36 10q22 7 32 17l24 23q21 23 23 73q0 102 -148 102q-88 0 -135 -30t-57 -103h-330
q70 358 520 359q485 0 485 -279z" />
    <glyph glyph-name="adieresis" unicode="&#xe4;" horiz-adv-x="1214" 
d="M643 1198h-315l55 266h315zM1079 1198h-315l55 266h316zM330 295q0 -111 141 -111q230 0 264 303h-2q-37 -31 -236 -47q-65 -4 -116 -40t-51 -105zM1126 815q0 -98 -30 -222t-49 -209q-20 -86 -39 -160t-19 -128t15 -96h-342q-8 37 -9 70v32h-4q-90 -133 -321 -133
q-158 0 -252 72t-94 227q0 287 366 342q117 17 174 19q56 2 70 3t42 4t42 7t36 10q22 7 32 17l24 23q21 23 23 73q0 102 -148 102q-88 0 -135 -30t-57 -103h-330q70 358 520 359q485 0 485 -279z" />
    <glyph glyph-name="aring" unicode="&#xe5;" horiz-adv-x="1214" 
d="M731 1262q45 0 76 32t31 76q0 45 -31 75t-76 30t-76 -30t-31 -75t31 -77q31 -31 76 -31zM731 1157q-91 1 -155 61t-64 151t63 151t155 59q92 0 156 -58q64 -57 64 -151t-64 -154t-155 -59zM330 295q0 -111 141 -111q230 0 264 303h-2q-37 -31 -236 -47q-65 -4 -116 -40
t-51 -105zM1126 815q0 -98 -30 -222t-49 -209q-20 -86 -39 -160t-19 -128t15 -96h-342q-8 37 -9 70v32h-4q-90 -133 -321 -133q-158 0 -252 72t-94 227q0 287 366 342q117 17 174 19q56 2 70 3t42 4t42 7t36 10q22 7 32 17l24 23q21 23 23 73q0 102 -148 102q-88 0 -135 -30
t-57 -103h-330q70 358 520 359q485 0 485 -279z" />
    <glyph glyph-name="ae" unicode="&#xe6;" horiz-adv-x="1896" 
d="M1028 414v-33q10 -176 174 -176q154 0 211 117h340q-57 -182 -203 -268t-348 -85q-293 0 -393 181q-139 -180 -481 -181q-158 0 -252 72t-94 227q0 287 366 342q117 17 174 19q56 2 70 3t42 4t42 7t36 10q22 7 32 17l24 23q21 23 23 73q0 102 -148 102q-88 0 -135 -30
t-57 -103h-330q70 358 520 359q129 0 214 -27t140 -100q66 71 143 99t191 28q231 0 357 -129t124 -361q0 -47 -14 -158h-766q-2 -10 -2 -32zM465 184q217 0 268 303h-6q-37 -31 -235 -47q-64 -4 -114 -40t-48 -105q-4 -57 35 -84t100 -27zM1057 641h428q14 86 -30 152
q-44 65 -139 65t-163 -56q-67 -57 -96 -161z" />
    <glyph glyph-name="ccedilla" unicode="&#xe7;" horiz-adv-x="1175" 
d="M371 -373q117 0 116 88q-1 61 -85 63q-38 0 -66 -14l-45 52l123 161q-61 12 -90 21q-143 45 -225 155q-81 110 -81 279q0 287 174 474t459 188q213 0 345 -106t132 -312h-337q2 76 -40 118t-116 44q-139 4 -204 -109t-64 -260q0 -244 176 -244q158 0 202 181h338
q-47 -221 -192 -329t-363 -108h-8l-80 -98v-4q24 6 78 6t105 -43t51 -111q-10 -203 -279 -198q-118 0 -231 57l51 90q80 -41 156 -41z" />
    <glyph glyph-name="egrave" unicode="&#xe8;" horiz-adv-x="1251" 
d="M276 1481h363l203 -299h-234zM536 205q166 0 209 117h340q-113 -352 -557 -353q-229 0 -369 119t-141 344q0 287 174 474t459 188q215 0 350 -122t136 -343q-1 -93 -13 -183h-766q-4 -45 -4 -71q16 -170 182 -170zM639 858q-193 0 -256 -217h418q8 93 -35 155t-127 62z
" />
    <glyph glyph-name="eacute" unicode="&#xe9;" horiz-adv-x="1251" 
d="M541 1182l221 299h379l-367 -299h-233zM536 205q166 0 209 117h340q-113 -352 -557 -353q-229 0 -369 119t-141 344q0 287 174 474t459 188q215 0 350 -122t136 -343q-1 -93 -13 -183h-766q-4 -45 -4 -71q16 -170 182 -170zM639 858q-193 0 -256 -217h418q8 93 -35 155
t-127 62z" />
    <glyph glyph-name="ecircumflex" unicode="&#xea;" horiz-adv-x="1251" 
d="M573 1182h-262l297 299h299l170 -299h-256l-92 168zM536 205q166 0 209 117h340q-113 -352 -557 -353q-229 0 -369 119t-141 344q0 287 174 474t459 188q215 0 350 -122t136 -343q-1 -93 -13 -183h-766q-4 -45 -4 -71q16 -170 182 -170zM639 858q-193 0 -256 -217h418
q8 93 -35 155t-127 62z" />
    <glyph glyph-name="edieresis" unicode="&#xeb;" horiz-adv-x="1251" 
d="M629 1198h-316l56 266h315zM1065 1198h-315l55 266h315zM536 205q166 0 209 117h340q-113 -352 -557 -353q-229 0 -369 119t-141 344q0 287 174 474t459 188q215 0 350 -122t136 -343q-1 -93 -13 -183h-766q-4 -45 -4 -71q16 -170 182 -170zM639 858q-193 0 -256 -217
h418q8 93 -35 155t-127 62z" />
    <glyph glyph-name="igrave" unicode="&#xec;" horiz-adv-x="606" 
d="M-23 1481h363l203 -299h-234zM-20 0l221 1063h348l-221 -1063h-348z" />
    <glyph glyph-name="iacute" unicode="&#xed;" horiz-adv-x="606" 
d="M209 1182l221 299h379l-367 -299h-233zM-20 0l221 1063h348l-221 -1063h-348z" />
    <glyph glyph-name="icircumflex" unicode="&#xee;" horiz-adv-x="606" 
d="M272 1182h-262l297 299h299l170 -299h-256l-92 168zM-20 0l221 1063h348l-221 -1063h-348z" />
    <glyph glyph-name="idieresis" unicode="&#xef;" horiz-adv-x="606" 
d="M330 1198h-316l56 266h315zM766 1198h-315l55 266h315zM-20 0l221 1063h348l-221 -1063h-348z" />
    <glyph glyph-name="eth" unicode="&#xf0;" horiz-adv-x="1251" 
d="M528 -31q-229 0 -369 119t-141 344q0 264 156 427t377 163q145 0 221 -53l4 4q-74 117 -149 184l-267 -115l-90 115l238 103q-78 63 -162 104l291 129q88 -55 149 -113l246 107l76 -121l-215 -92q260 -236 260 -608q0 -303 -164 -500t-461 -197zM805 565q0 201 -176 201
q-129 0 -196 -98t-67 -210q1 -233 171 -233q131 1 199 101t69 239z" />
    <glyph glyph-name="ntilde" unicode="&#xf1;" 
d="M905 1198q-53 0 -135 29l-84 28q-70 23 -92 23t-46 -23q-22 -23 -30 -61h-160q14 104 82 187t166 83q41 0 113 -26l92 -35q55 -23 98 -23q51 0 76 90h160q-55 -272 -240 -272zM1196 795q0 -88 -37 -230l-127 -565h-348l121 563q20 98 20 147t-34 84q-64 63 -200 11
q-22 -7 -41 -27l-32 -32t-25 -44q-13 -31 -23 -51t-28 -106t-20 -94l-94 -451h-348l221 1063h348l-29 -129h4q42 61 140 110q98 50 233 50t217 -81t82 -218z" />
    <glyph glyph-name="ograve" unicode="&#xf2;" horiz-adv-x="1251" 
d="M242 1481h362l203 -299h-234zM18 432q0 287 174 474t459 188q223 0 363 -124t139 -345q0 -289 -170 -472t-455 -184q-230 0 -370 119t-140 344zM367 435q0 -89 41 -149t131 -60t153 64q113 117 113 320q0 227 -176 228q-88 0 -151 -71q-111 -127 -111 -332z" />
    <glyph glyph-name="oacute" unicode="&#xf3;" horiz-adv-x="1251" 
d="M539 1182l221 299h379l-367 -299h-233zM18 432q0 287 174 474t459 188q223 0 363 -124t139 -345q0 -289 -170 -472t-455 -184q-230 0 -370 119t-140 344zM367 435q0 -89 41 -149t131 -60t153 64q113 117 113 320q0 227 -176 228q-88 0 -151 -71q-111 -127 -111 -332z" />
    <glyph glyph-name="ocircumflex" unicode="&#xf4;" horiz-adv-x="1251" 
d="M573 1182h-262l297 299h299l170 -299h-256l-92 168zM18 432q0 287 174 474t459 188q223 0 363 -124t139 -345q0 -289 -170 -472t-455 -184q-230 0 -370 119t-140 344zM367 435q0 -89 41 -149t131 -60t153 64q113 117 113 320q0 227 -176 228q-88 0 -151 -71
q-111 -127 -111 -332z" />
    <glyph glyph-name="otilde" unicode="&#xf5;" horiz-adv-x="1251" 
d="M848 1198q-53 0 -135 29l-84 28q-71 23 -93 23t-44 -23t-31 -61h-160q14 104 82 187t166 83q41 0 113 -26l92 -35q55 -23 98 -23q51 0 76 90h159q-55 -272 -239 -272zM18 432q0 287 174 474t459 188q223 0 363 -124t139 -345q0 -289 -170 -472t-455 -184q-230 0 -370 119
t-140 344zM367 435q0 -89 41 -149t131 -60t153 64q113 117 113 320q0 227 -176 228q-88 0 -151 -71q-111 -127 -111 -332z" />
    <glyph glyph-name="odieresis" unicode="&#xf6;" horiz-adv-x="1251" 
d="M614 1198h-315l55 266h316zM1051 1198h-316l56 266h315zM18 432q0 287 174 474t459 188q223 0 363 -124t139 -345q0 -289 -170 -472t-455 -184q-230 0 -370 119t-140 344zM367 435q0 -89 41 -149t131 -60t153 64q113 117 113 320q0 227 -176 228q-88 0 -151 -71
q-111 -127 -111 -332z" />
    <glyph glyph-name="divide" unicode="&#xf7;" horiz-adv-x="1228" 
d="M1130 371h-1032v295h1032v-295zM412 944q0 84 58 142t144 58t144 -58t59 -142q0 -84 -59 -144q-60 -60 -144 -60t-143 60t-59 144zM412 96q0 84 58 142t144 59q86 0 144 -58q58 -59 59 -143q0 -84 -59 -144q-60 -60 -144 -60t-143 60t-59 144z" />
    <glyph glyph-name="oslash" unicode="&#xf8;" horiz-adv-x="1251" 
d="M1153 625q0 -289 -170 -472t-455 -184q-225 0 -356 107l-147 -135l-70 69l147 137q-84 109 -84 285q0 287 174 474t459 188q217 0 353 -113l141 131l69 -74l-143 -131q82 -113 82 -282zM539 225q90 0 153 65q113 117 113 320v25q0 10 -4 22l-395 -366q43 -66 133 -66z
M635 838q-95 0 -157 -71q-114 -129 -111 -323q0 -33 6 -47l397 369q-41 72 -135 72z" />
    <glyph glyph-name="ugrave" unicode="&#xf9;" 
d="M324 1481h362l203 -299h-234zM352 -31q-100 0 -170 34t-98 86q-48 88 -49 162q0 73 20 167l138 645h348l-121 -590q-14 -66 -14 -127q0 -111 114 -110q104 0 161 65q56 66 81 186l123 576h348l-225 -1063h-334l31 145h-5q-117 -176 -348 -176z" />
    <glyph glyph-name="uacute" unicode="&#xfa;" 
d="M606 1182l221 299h379l-366 -299h-234zM352 -31q-100 0 -170 34t-98 86q-48 88 -49 162q0 73 20 167l138 645h348l-121 -590q-14 -66 -14 -127q0 -111 114 -110q104 0 161 65q56 66 81 186l123 576h348l-225 -1063h-334l31 145h-5q-117 -176 -348 -176z" />
    <glyph glyph-name="ucircumflex" unicode="&#xfb;" 
d="M621 1182h-263l297 299h299l170 -299h-256l-92 168zM352 -31q-100 0 -170 34t-98 86q-48 88 -49 162q0 73 20 167l138 645h348l-121 -590q-14 -66 -14 -127q0 -111 114 -110q104 0 161 65q56 66 81 186l123 576h348l-225 -1063h-334l31 145h-5q-117 -176 -348 -176z" />
    <glyph glyph-name="udieresis" unicode="&#xfc;" 
d="M657 1198h-315l55 266h316zM1094 1198h-316l56 266h315zM352 -31q-100 0 -170 34t-98 86q-48 88 -49 162q0 73 20 167l138 645h348l-121 -590q-14 -66 -14 -127q0 -111 114 -110q104 0 161 65q56 66 81 186l123 576h348l-225 -1063h-334l31 145h-5q-117 -176 -348 -176z
" />
    <glyph glyph-name="yacute" unicode="&#xfd;" horiz-adv-x="1099" 
d="M530 1182l222 299h378l-366 -299h-234zM64 -90q50 0 71 3q46 7 83 76q17 32 22 38l-197 1036h354l80 -748h4l318 748h364l-540 -1014q-8 -13 -42 -75t-61 -105t-74 -99t-93 -76q-119 -50 -290 -50q-54 0 -169 12l57 262q63 -8 113 -8z" />
    <glyph glyph-name="thorn" unicode="&#xfe;" 
d="M1200 650q0 -381 -247 -578q-128 -102 -300 -103q-223 0 -309 168h-4l-100 -493h-349l379 1818h348l-106 -510h4q111 142 304 142q192 0 286 -131t94 -313zM587 236q91 0 153 63q112 114 112 321t-182 207q-127 -1 -194 -123t-66 -262q0 -92 43 -149t134 -57z" />
    <glyph glyph-name="ydieresis" unicode="&#xff;" horiz-adv-x="1099" 
d="M567 1198h-315l55 266h316zM1004 1198h-316l55 266h316zM64 -90q50 0 71 3q46 7 83 76q17 32 22 38l-197 1036h354l80 -748h4l318 748h364l-540 -1014q-8 -13 -42 -75t-61 -105t-74 -99t-93 -76q-119 -50 -290 -50q-54 0 -169 12l57 262q63 -8 113 -8z" />
    <glyph glyph-name="Amacron" unicode="&#x100;" horiz-adv-x="1441" 
d="M1282 1632h-780l33 162h780zM-158 0l854 1462h385l240 -1462h-383l-35 262h-514l-147 -262h-400zM811 1071l-274 -526h333l-55 526h-4z" />
    <glyph glyph-name="amacron" unicode="&#x101;" horiz-adv-x="1214" 
d="M1100 1251h-781l33 162h781zM330 295q0 -111 141 -111q230 0 264 303h-2q-37 -31 -236 -47q-65 -4 -116 -40t-51 -105zM1126 815q0 -98 -30 -222t-49 -209q-20 -86 -39 -160t-19 -128t15 -96h-342q-8 37 -9 70v32h-4q-90 -133 -321 -133q-158 0 -252 72t-94 227
q0 287 366 342q117 17 174 19q56 2 70 3t42 4t42 7t36 10q22 7 32 17l24 23q21 23 23 73q0 102 -148 102q-88 0 -135 -30t-57 -103h-330q70 358 520 359q485 0 485 -279z" />
    <glyph glyph-name="Abreve" unicode="&#x102;" horiz-adv-x="1441" 
d="M567 1864h142q8 -144 185 -144t241 144h145q-62 -304 -384 -304q-165 0 -255 76t-74 228zM-158 0l854 1462h385l240 -1462h-383l-35 262h-514l-147 -262h-400zM811 1071l-274 -526h333l-55 526h-4z" />
    <glyph glyph-name="abreve" unicode="&#x103;" horiz-adv-x="1214" 
d="M397 1483h142q8 -143 185 -143t241 143h145q-62 -303 -384 -303q-165 0 -255 76t-74 227zM330 295q0 -111 141 -111q230 0 264 303h-2q-37 -31 -236 -47q-65 -4 -116 -40t-51 -105zM1126 815q0 -98 -30 -222t-49 -209q-20 -86 -39 -160t-19 -128t15 -96h-342q-8 37 -9 70
v32h-4q-90 -133 -321 -133q-158 0 -252 72t-94 227q0 287 366 342q117 17 174 19q56 2 70 3t42 4t42 7t36 10q22 7 32 17l24 23q21 23 23 73q0 102 -148 102q-88 0 -135 -30t-57 -103h-330q70 358 520 359q485 0 485 -279z" />
    <glyph glyph-name="Aogonek" unicode="&#x104;" horiz-adv-x="1441" 
d="M811 1071l-274 -526h333l-55 526h-4zM838 -266q0 -70 70 -70t126 76l90 -33q-117 -186 -293 -186q-70 0 -129 36t-59 128q0 160 295 315l-35 262h-514l-147 -262h-400l854 1462h385l240 -1462h-231q-252 -170 -252 -266z" />
    <glyph glyph-name="aogonek" unicode="&#x105;" horiz-adv-x="1214" 
d="M330 295q0 -111 141 -111q230 0 264 303h-2q-37 -31 -236 -47q-65 -4 -116 -40t-51 -105zM1126 815q0 -98 -30 -222t-49 -209q-20 -86 -39 -160t-19 -128t15 -96h-197q-227 -174 -227 -266q0 -70 65 -70q72 0 127 76l84 -33q-106 -186 -281 -186q-67 0 -123 36t-57 128
q0 143 269 315h-2q-8 37 -9 70v32h-4q-90 -133 -321 -133q-158 0 -252 72t-94 227q0 287 366 342q117 17 174 19q56 2 70 3t42 4t42 7t36 10q22 7 32 17l24 23q21 23 23 73q0 102 -148 102q-88 0 -135 -30t-57 -103h-330q70 358 520 359q485 0 485 -279z" />
    <glyph glyph-name="Cacute" unicode="&#x106;" horiz-adv-x="1517" 
d="M750 1563l221 299h379l-367 -299h-233zM868 1180q-116 0 -197 -56t-125 -142q-91 -180 -90 -352t61 -260q61 -88 195 -87t219 73t105 185h381q-61 -287 -243 -429t-500 -143q-172 0 -310 76q-83 45 -145 116q-61 71 -102 191t-41 277q0 239 91 433t272 312t445 119
q264 0 426 -139q164 -139 160 -418h-380q12 106 -48 175q-58 69 -174 69z" />
    <glyph glyph-name="cacute" unicode="&#x107;" horiz-adv-x="1175" 
d="M524 1182l221 299h379l-366 -299h-234zM1128 676h-337q2 76 -40 118t-116 44q-139 4 -204 -109t-64 -260q0 -244 176 -244q158 0 202 181h338q-47 -221 -192 -329t-369 -108t-363 119q-140 119 -141 344q0 287 174 474t459 188q213 0 345 -106t132 -312z" />
    <glyph glyph-name="Ccircumflex" unicode="&#x108;" horiz-adv-x="1517" 
d="M780 1563h-262l297 299h299l170 -299h-256l-92 168zM868 1180q-116 0 -197 -56t-125 -142q-91 -180 -90 -352t61 -260q61 -88 195 -87t219 73t105 185h381q-61 -287 -243 -429t-500 -143q-172 0 -310 76q-83 45 -145 116q-61 71 -102 191t-41 277q0 239 91 433t272 312
t445 119q264 0 426 -139q164 -139 160 -418h-380q12 106 -48 175q-58 69 -174 69z" />
    <glyph glyph-name="ccircumflex" unicode="&#x109;" horiz-adv-x="1175" 
d="M551 1182h-262l297 299h299l170 -299h-256l-92 168zM1128 676h-337q2 76 -40 118t-116 44q-139 4 -204 -109t-64 -260q0 -244 176 -244q158 0 202 181h338q-47 -221 -192 -329t-369 -108t-363 119q-140 119 -141 344q0 287 174 474t459 188q213 0 345 -106t132 -312z" />
    <glyph glyph-name="Cdotaccent" unicode="&#x10a;" horiz-adv-x="1517" 
d="M1053 1579h-316l56 266h315zM868 1180q-116 0 -197 -56t-125 -142q-91 -180 -90 -352t61 -260q61 -88 195 -87t219 73t105 185h381q-61 -287 -243 -429t-500 -143q-172 0 -310 76q-83 45 -145 116q-61 71 -102 191t-41 277q0 239 91 433t272 312t445 119q264 0 426 -139
q164 -139 160 -418h-380q12 106 -48 175q-58 69 -174 69z" />
    <glyph glyph-name="cdotaccent" unicode="&#x10b;" horiz-adv-x="1175" 
d="M821 1198h-315l55 266h316zM1128 676h-337q2 76 -40 118t-116 44q-139 4 -204 -109t-64 -260q0 -244 176 -244q158 0 202 181h338q-47 -221 -192 -329t-369 -108t-363 119q-140 119 -141 344q0 287 174 474t459 188q213 0 345 -106t132 -312z" />
    <glyph glyph-name="Ccaron" unicode="&#x10c;" horiz-adv-x="1517" 
d="M561 1862h256l92 -168l156 168h262l-297 -299h-299zM868 1180q-116 0 -197 -56t-125 -142q-91 -180 -90 -352t61 -260q61 -88 195 -87t219 73t105 185h381q-61 -287 -243 -429t-500 -143q-172 0 -310 76q-83 45 -145 116q-61 71 -102 191t-41 277q0 239 91 433t272 312
t445 119q264 0 426 -139q164 -139 160 -418h-380q12 106 -48 175q-58 69 -174 69z" />
    <glyph glyph-name="ccaron" unicode="&#x10d;" horiz-adv-x="1175" 
d="M336 1481h256l92 -168l156 168h262l-297 -299h-299zM1128 676h-337q2 76 -40 118t-116 44q-139 4 -204 -109t-64 -260q0 -244 176 -244q158 0 202 181h338q-47 -221 -192 -329t-369 -108t-363 119q-140 119 -141 344q0 287 174 474t459 188q213 0 345 -106t132 -312z" />
    <glyph glyph-name="Dcaron" unicode="&#x10e;" horiz-adv-x="1554" 
d="M512 1862h256l92 -168l156 168h262l-297 -299h-299zM842 1462q301 0 476 -150t175 -468q0 -362 -221 -603t-635 -241h-653l309 1462h549zM686 328q117 0 204 48q145 80 201 280q22 79 21 157q0 322 -289 322h-219l-170 -807h252z" />
    <glyph glyph-name="dcaron" unicode="&#x10f;" horiz-adv-x="1525" 
d="M1499 1462h313l-235 -305h-213zM543 236q91 0 155 68q116 121 115 327q0 90 -47 143t-135 53q-87 0 -151 -63q-115 -114 -113 -322q0 -92 43 -149t133 -57zM415 -31q-204 0 -300 124q-97 125 -97 315q-1 401 257 588q132 97 309 98q233 0 290 -172h5l110 540h348
l-305 -1462h-338l29 131h-4q-100 -162 -304 -162z" />
    <glyph glyph-name="Dcroat" unicode="&#x110;" horiz-adv-x="1554" 
d="M842 1462q301 0 476 -150t175 -468q0 -362 -221 -603t-635 -241h-653l127 606h-209l65 295h207l119 561h549zM686 328q117 0 204 48q145 80 201 280q22 79 21 157q0 322 -289 322h-219l-49 -234h281l-60 -295h-284l-58 -278h252z" />
    <glyph glyph-name="dcroat" unicode="&#x111;" horiz-adv-x="1390" 
d="M543 236q91 0 155 68q116 121 115 327q0 90 -47 143t-135 53q-87 0 -151 -63q-115 -114 -113 -322q0 -92 43 -149t133 -57zM415 -31q-204 0 -300 124q-97 125 -97 315q-1 401 257 588q132 97 309 98q233 0 290 -172h5l45 221h-199l33 162h198l33 157h348l-32 -157h227
l-33 -162h-229l-238 -1143h-338l29 131h-4q-100 -162 -304 -162z" />
    <glyph glyph-name="Emacron" unicode="&#x112;" horiz-adv-x="1402" 
d="M1272 1632h-780l32 162h781zM-16 0l303 1462h1167l-70 -327h-786l-47 -234h725l-62 -295h-725l-57 -278h793l-70 -328h-1171z" />
    <glyph glyph-name="emacron" unicode="&#x113;" horiz-adv-x="1251" 
d="M1073 1251h-780l33 162h780zM536 205q166 0 209 117h340q-113 -352 -557 -353q-229 0 -369 119t-141 344q0 287 174 474t459 188q215 0 350 -122t136 -343q-1 -93 -13 -183h-766q-4 -45 -4 -71q16 -170 182 -170zM639 858q-193 0 -256 -217h418q8 93 -35 155t-127 62z
" />
    <glyph glyph-name="Ebreve" unicode="&#x114;" horiz-adv-x="1402" 
d="M547 1864h141q8 -144 185 -144t241 144h146q-62 -304 -384 -304q-166 0 -256 76t-73 228zM-16 0l303 1462h1167l-70 -327h-786l-47 -234h725l-62 -295h-725l-57 -278h793l-70 -328h-1171z" />
    <glyph glyph-name="ebreve" unicode="&#x115;" horiz-adv-x="1251" 
d="M369 1483h141q8 -143 185 -143t241 143h145q-62 -303 -384 -303q-165 0 -255 75q-89 76 -73 228zM536 205q166 0 209 117h340q-113 -352 -557 -353q-229 0 -369 119t-141 344q0 287 174 474t459 188q215 0 350 -122t136 -343q-1 -93 -13 -183h-766q-4 -45 -4 -71
q16 -170 182 -170zM639 858q-193 0 -256 -217h418q8 93 -35 155t-127 62z" />
    <glyph glyph-name="Edotaccent" unicode="&#x116;" horiz-adv-x="1402" 
d="M1030 1579h-315l55 266h315zM-16 0l303 1462h1167l-70 -327h-786l-47 -234h725l-62 -295h-725l-57 -278h793l-70 -328h-1171z" />
    <glyph glyph-name="edotaccent" unicode="&#x117;" horiz-adv-x="1251" 
d="M825 1198h-315l55 266h316zM536 205q166 0 209 117h340q-113 -352 -557 -353q-229 0 -369 119t-141 344q0 287 174 474t459 188q215 0 350 -122t136 -343q-1 -93 -13 -183h-766q-4 -45 -4 -71q16 -170 182 -170zM639 858q-193 0 -256 -217h418q8 93 -35 155t-127 62z" />
    <glyph glyph-name="Eogonek" unicode="&#x118;" horiz-adv-x="1402" 
d="M805 -266q1 -70 71 -70t125 76l91 -33q-117 -186 -293 -186q-70 0 -129 36t-60 128q0 160 295 315h-921l303 1462h1167l-70 -327h-786l-47 -234h725l-62 -295h-725l-57 -278h793l-70 -328h-98q-252 -170 -252 -266z" />
    <glyph glyph-name="eogonek" unicode="&#x119;" horiz-adv-x="1251" 
d="M639 858q-193 0 -256 -217h418q8 93 -35 155t-127 62zM536 205q166 0 209 117h340q-109 -334 -518 -351q-205 -147 -207 -237q0 -70 71 -70t126 76l90 -33q-117 -186 -293 -186q-70 0 -129 36q-59 35 -59 137t141 212q33 25 111 71q-215 36 -319 176q-81 110 -81 279
q0 287 174 474t459 188q215 0 350 -122t136 -343q-1 -93 -13 -183h-766q-4 -45 -4 -71q16 -170 182 -170z" />
    <glyph glyph-name="Ecaron" unicode="&#x11a;" horiz-adv-x="1402" 
d="M547 1862h256l92 -168l156 168h262l-297 -299h-299zM-16 0l303 1462h1167l-70 -327h-786l-47 -234h725l-62 -295h-725l-57 -278h793l-70 -328h-1171z" />
    <glyph glyph-name="ecaron" unicode="&#x11b;" horiz-adv-x="1251" 
d="M350 1481h256l92 -168l156 168h262l-297 -299h-299zM536 205q166 0 209 117h340q-113 -352 -557 -353q-229 0 -369 119t-141 344q0 287 174 474t459 188q215 0 350 -122t136 -343q-1 -93 -13 -183h-766q-4 -45 -4 -71q16 -170 182 -170zM639 858q-193 0 -256 -217h418
q8 93 -35 155t-127 62z" />
    <glyph glyph-name="Gcircumflex" unicode="&#x11c;" horiz-adv-x="1593" 
d="M807 1563h-262l297 299h299l170 -299h-256l-92 168zM752 283q141 0 219 53t121 182h-269l60 283h608l-170 -801h-244l8 147h-4q-71 -94 -163 -136t-233 -42t-238 32q-97 31 -183 101t-136 199t-50 305q0 88 24 200q24 111 58 195q33 85 96 177t146 160t213 111
q130 44 288 44q287 0 447 -132t151 -396h-360q4 98 -67 156q-72 59 -180 59t-196 -52t-138 -138q-103 -175 -101 -384q0 -156 76 -240t217 -83z" />
    <glyph glyph-name="gcircumflex" unicode="&#x11d;" horiz-adv-x="1251" 
d="M596 1182h-262l297 299h299l170 -299h-256l-92 168zM299 -31q0 -61 39 -94t92 -33t88 8t61 30t41 39t28 57q14 40 20 60t16 72t14 70h-4q-40 -61 -118 -94t-160 -33q-178 0 -289 115t-111 284q0 361 234 547q121 96 280 97q254 0 326 -181h4l29 150h334l-179 -858
q-70 -336 -202 -457t-424 -121q-191 0 -321 68q-150 78 -146 274h348zM535 287q121 0 187 95q66 94 66 210q-1 234 -165 235q-125 0 -192 -100q-67 -101 -67 -213q2 -228 171 -227z" />
    <glyph glyph-name="Gbreve" unicode="&#x11e;" horiz-adv-x="1593" 
d="M604 1864h141q7 -144 185 -144t241 144h146q-62 -304 -384 -304q-165 0 -255 76t-74 228zM752 283q141 0 219 53t121 182h-269l60 283h608l-170 -801h-244l8 147h-4q-71 -94 -163 -136t-233 -42t-238 32q-97 31 -183 101t-136 199t-50 305q0 88 24 200q24 111 58 195
q33 85 96 177t146 160t213 111q130 44 288 44q287 0 447 -132t151 -396h-360q4 98 -67 156q-72 59 -180 59t-196 -52t-138 -138q-103 -175 -101 -384q0 -156 76 -240t217 -83z" />
    <glyph glyph-name="gbreve" unicode="&#x11f;" horiz-adv-x="1251" 
d="M414 1483h141q8 -143 185 -143t241 143h145q-62 -303 -384 -303q-165 0 -255 75q-89 76 -73 228zM299 -31q0 -61 39 -94t92 -33t88 8t61 30t41 39t28 57q14 40 20 60t16 72t14 70h-4q-40 -61 -118 -94t-160 -33q-178 0 -289 115t-111 284q0 361 234 547q121 96 280 97
q254 0 326 -181h4l29 150h334l-179 -858q-70 -336 -202 -457t-424 -121q-191 0 -321 68q-150 78 -146 274h348zM535 287q121 0 187 95q66 94 66 210q-1 234 -165 235q-125 0 -192 -100q-67 -101 -67 -213q2 -228 171 -227z" />
    <glyph glyph-name="Gdotaccent" unicode="&#x120;" horiz-adv-x="1593" 
d="M1087 1579h-315l55 266h316zM752 283q141 0 219 53t121 182h-269l60 283h608l-170 -801h-244l8 147h-4q-71 -94 -163 -136t-233 -42t-238 32q-97 31 -183 101t-136 199t-50 305q0 88 24 200q24 111 58 195q33 85 96 177t146 160t213 111q130 44 288 44q287 0 447 -132
t151 -396h-360q4 98 -67 156q-72 59 -180 59t-196 -52t-138 -138q-103 -175 -101 -384q0 -156 76 -240t217 -83z" />
    <glyph glyph-name="gdotaccent" unicode="&#x121;" horiz-adv-x="1251" 
d="M872 1198h-315l55 266h316zM299 -31q0 -61 39 -94t92 -33t88 8t61 30t41 39t28 57q14 40 20 60t16 72t14 70h-4q-40 -61 -118 -94t-160 -33q-178 0 -289 115t-111 284q0 361 234 547q121 96 280 97q254 0 326 -181h4l29 150h334l-179 -858q-70 -336 -202 -457t-424 -121
q-191 0 -321 68q-150 78 -146 274h348zM535 287q121 0 187 95q66 94 66 210q-1 234 -165 235q-125 0 -192 -100q-67 -101 -67 -213q2 -228 171 -227z" />
    <glyph glyph-name="Gcommaaccent" unicode="&#x122;" horiz-adv-x="1593" 
d="M469 -317l45 215h315l-34 -166q-18 -92 -76 -138q-51 -45 -107 -59t-147 -14l18 86q55 6 83 22t44 54h-141zM752 283q141 0 219 53t121 182h-269l60 283h608l-170 -801h-244l8 147h-4q-71 -94 -163 -136t-233 -42t-238 32q-97 31 -183 101t-136 199t-50 305q0 88 24 200
q24 111 58 195q33 85 96 177t146 160t213 111q130 44 288 44q287 0 447 -132t151 -396h-360q4 98 -67 156q-72 59 -180 59t-196 -52t-138 -138q-103 -175 -101 -384q0 -156 76 -240t217 -83z" />
    <glyph glyph-name="gcommaaccent" unicode="&#x123;" horiz-adv-x="1251" 
d="M920 1462l-46 -215h-315l35 166q18 92 76 137q53 46 109 60t145 14l-17 -86q-57 -6 -85 -22t-44 -54h142zM299 -31q0 -61 39 -94t92 -33t88 8t61 30t41 39t28 57q14 40 20 60t16 72t14 70h-4q-40 -61 -118 -94t-160 -33q-178 0 -289 115t-111 284q0 361 234 547
q121 96 280 97q254 0 326 -181h4l29 150h334l-179 -858q-70 -336 -202 -457t-424 -121q-191 0 -321 68q-150 78 -146 274h348zM535 287q121 0 187 95q66 94 66 210q-1 234 -165 235q-125 0 -192 -100q-67 -101 -67 -213q2 -228 171 -227z" />
    <glyph glyph-name="Hcircumflex" unicode="&#x124;" horiz-adv-x="1517" 
d="M801 1563h-262l297 299h299l170 -299h-256l-93 168zM-23 0l306 1462h381l-111 -532h508l110 532h381l-305 -1462h-381l125 602h-508l-125 -602h-381z" />
    <glyph glyph-name="hcircumflex" unicode="&#x125;" 
d="M668 1563h-262l296 299h299l170 -299h-256l-92 168zM897 1094q135 0 217 -81t82 -218q0 -88 -37 -230l-127 -565h-348l121 563q20 98 20 147t-34 84q-64 63 -200 11q-22 -7 -41 -27l-32 -32t-25 -44q-13 -31 -23 -51t-28 -106t-20 -94l-94 -451h-348l309 1462h348
l-113 -524l4 -4q42 64 138 112t231 48z" />
    <glyph glyph-name="Hbar" unicode="&#x126;" horiz-adv-x="1517" 
d="M530 829h508l35 164h-508zM-23 0l306 1462h381l-66 -307h508l65 307h381l-305 -1462h-381l107 522h-508l-107 -522h-381z" />
    <glyph glyph-name="hbar" unicode="&#x127;" horiz-adv-x="1372" 
d="M979 1094q135 0 217 -81t82 -218q0 -88 -37 -230l-127 -565h-348l121 563q20 98 20 147q0 50 -35 84q-64 63 -199 11q-22 -7 -41 -27l-32 -32t-26 -44q-14 -31 -23 -52q-10 -21 -27 -106q-18 -85 -20 -93l-94 -451h-349l242 1143h-237l32 162h238l35 157h348l-35 -157
h195l-33 -162h-197l-43 -205l4 -4q42 64 138 112t231 48z" />
    <glyph glyph-name="Itilde" unicode="&#x128;" horiz-adv-x="645" 
d="M643 1579q-53 0 -135 29l-84 28q-70 23 -92 23t-46 -23q-22 -23 -30 -61h-160q14 104 82 187t166 83q41 0 113 -26l92 -35q55 -23 98 -23q51 0 76 90h160q-55 -272 -240 -272zM-16 0l305 1462h381l-305 -1462h-381z" />
    <glyph glyph-name="itilde" unicode="&#x129;" horiz-adv-x="606" 
d="M547 1198q-53 0 -135 29l-84 28q-70 23 -92 23t-46 -23q-23 -23 -30 -61h-160q14 104 82 187t166 83q41 0 112 -26l93 -35q55 -23 98 -23q51 0 76 90h159q-55 -272 -239 -272zM-20 0l221 1063h348l-221 -1063h-348z" />
    <glyph glyph-name="Imacron" unicode="&#x12a;" horiz-adv-x="645" 
d="M887 1632h-781l33 162h781zM-16 0l305 1462h381l-305 -1462h-381z" />
    <glyph glyph-name="imacron" unicode="&#x12b;" horiz-adv-x="606" 
d="M774 1251h-780l33 162h780zM-20 0l221 1063h348l-221 -1063h-348z" />
    <glyph glyph-name="Iogonek" unicode="&#x12e;" horiz-adv-x="645" 
d="M74 -266q0 -70 70 -70t126 76l90 -33q-117 -186 -292 -186q-70 0 -129 36t-60 128q0 160 295 315h-190l305 1462h381l-305 -1462h-39q-252 -170 -252 -266z" />
    <glyph glyph-name="iogonek" unicode="&#x12f;" horiz-adv-x="606" 
d="M633 1462l-55 -266h-349l56 266h348zM80 -266q0 -70 65 -70q72 0 125 76l88 -33q-111 -186 -284 -186q-66 0 -124 36t-59 128q0 160 287 315h-198l221 1063h348l-221 -1063h-2q-246 -170 -246 -266z" />
    <glyph glyph-name="Idotaccent" unicode="&#x130;" horiz-adv-x="645" 
d="M655 1579h-315l55 266h316zM-16 0l305 1462h381l-305 -1462h-381z" />
    <glyph glyph-name="dotlessi" unicode="&#x131;" horiz-adv-x="606" 
d="M-20 0l221 1063h348l-221 -1063h-348z" />
    <glyph glyph-name="IJ" unicode="&#x132;" horiz-adv-x="1843" 
d="M1063 -31q-161 0 -287 75q-68 40 -107 118q-40 78 -40 184t28 232h351q-31 -111 -31 -170q0 -125 123 -125q84 0 124 43t60 143l203 993h381l-203 -993q-53 -260 -199 -380t-403 -120zM-16 0l305 1462h381l-305 -1462h-381z" />
    <glyph glyph-name="ij" unicode="&#x133;" horiz-adv-x="1210" 
d="M469 -90q63 0 88 34t41 115l209 1004h346l-205 -987q-51 -250 -140 -341t-310 -91h-168l59 266h80zM1237 1462l-55 -266h-348l55 266h348zM-20 0l221 1063h348l-221 -1063h-348zM633 1462l-55 -266h-349l56 266h348z" />
    <glyph glyph-name="Jcircumflex" unicode="&#x134;" horiz-adv-x="1214" 
d="M932 1563h-262l297 299h299l170 -299h-256l-93 168zM434 -31q-160 0 -287 75q-68 40 -107 118q-40 78 -40 184t29 232h350q-31 -111 -31 -170q0 -125 123 -125q84 0 124 43t60 143l203 993h381l-203 -993q-53 -260 -198 -380t-404 -120z" />
    <glyph glyph-name="jcircumflex" unicode="&#x135;" horiz-adv-x="606" 
d="M258 1182h-262l297 299h299l170 -299h-256l-92 168zM-135 -90q63 0 88 34t41 115l209 1004h346l-205 -987q-51 -250 -140 -341t-310 -91h-168l59 266h80z" />
    <glyph glyph-name="Kcommaaccent" unicode="&#x136;" horiz-adv-x="1517" 
d="M426 -317l45 215h315l-34 -166q-18 -92 -76 -138q-52 -45 -108 -59t-146 -14l18 86q55 6 83 22t44 54h-141zM-16 0l309 1462h381l-121 -573h4l596 573h504l-699 -602l435 -860h-435l-301 614l-198 -170l-94 -444h-381z" />
    <glyph glyph-name="kcommaaccent" unicode="&#x137;" horiz-adv-x="1175" 
d="M287 -317l45 215h315l-35 -166q-18 -92 -75 -138q-51 -45 -107 -59t-147 -14l18 86q55 6 83 22t44 54h-141zM-20 0l307 1462h348l-160 -757h4l363 358h430l-481 -418l266 -645h-379l-160 428l-123 -102l-67 -326h-348z" />
    <glyph glyph-name="Lacute" unicode="&#x139;" horiz-adv-x="1214" 
d="M365 1563l221 299h379l-367 -299h-233zM-16 0l305 1462h381l-238 -1134h684l-69 -328h-1063z" />
    <glyph glyph-name="lacute" unicode="&#x13a;" horiz-adv-x="606" 
d="M301 1563l221 299h379l-366 -299h-234zM-20 0l305 1462h348l-305 -1462h-348z" />
    <glyph glyph-name="Lcommaaccent" unicode="&#x13b;" horiz-adv-x="1214" 
d="M307 -317l45 215h316l-35 -166q-18 -92 -76 -138q-51 -45 -107 -59t-147 -14l19 86q54 6 82 22t45 54h-142zM-16 0l305 1462h381l-238 -1134h684l-69 -328h-1063z" />
    <glyph glyph-name="lcommaaccent" unicode="&#x13c;" horiz-adv-x="606" 
d="M-66 -317l46 215h315l-35 -166q-18 -92 -76 -138q-51 -45 -107 -59t-147 -14l19 86q55 6 83 22t44 54h-142zM-20 0l305 1462h348l-305 -1462h-348z" />
    <glyph glyph-name="Lcaron" unicode="&#x13d;" horiz-adv-x="1214" 
d="M930 1462h313l-235 -305h-213zM-16 0l305 1462h381l-238 -1134h684l-69 -328h-1063z" />
    <glyph glyph-name="lcaron" unicode="&#x13e;" horiz-adv-x="821" 
d="M795 1462h313l-236 -305h-213zM-20 0l305 1462h348l-305 -1462h-348z" />
    <glyph glyph-name="Ldot" unicode="&#x13f;" horiz-adv-x="1214" 
d="M1026 752h-256l45 305h256zM-16 0l305 1462h381l-238 -1134h684l-69 -328h-1063z" />
    <glyph glyph-name="ldot" unicode="&#x140;" horiz-adv-x="911" 
d="M-20 0l305 1462h348l-305 -1462h-348zM915 752h-256l46 305h256z" />
    <glyph glyph-name="Lslash" unicode="&#x141;" horiz-adv-x="1214" 
d="M-16 0l118 567l-180 -96l49 244l181 94l137 653h381l-90 -432l372 197l-51 -244l-375 -201l-94 -454h684l-69 -328h-1063z" />
    <glyph glyph-name="lslash" unicode="&#x142;" horiz-adv-x="606" 
d="M-20 0l104 500l-190 -150l47 223l188 150l154 739h348l-86 -413l192 149l-47 -223l-190 -150l-172 -825h-348z" />
    <glyph glyph-name="Nacute" unicode="&#x143;" horiz-adv-x="1517" 
d="M766 1563l221 299h379l-367 -299h-233zM-33 0l305 1462h392l342 -956h4l182 956h369l-306 -1462h-391l-338 956h-4l-186 -956h-369z" />
    <glyph glyph-name="nacute" unicode="&#x144;" 
d="M592 1182l221 299h379l-367 -299h-233zM1196 795q0 -88 -37 -230l-127 -565h-348l121 563q20 98 20 147t-34 84q-64 63 -200 11q-22 -7 -41 -27l-32 -32t-25 -44q-13 -31 -23 -51t-28 -106t-20 -94l-94 -451h-348l221 1063h348l-29 -129h4q42 61 140 110q98 50 233 50
t217 -81t82 -218z" />
    <glyph glyph-name="Ncommaaccent" unicode="&#x145;" horiz-adv-x="1517" 
d="M416 -317l45 215h315l-35 -166q-18 -92 -75 -138q-52 -45 -108 -59t-146 -14l18 86q55 6 83 22t44 54h-141zM-33 0l305 1462h392l342 -956h4l182 956h369l-306 -1462h-391l-338 956h-4l-186 -956h-369z" />
    <glyph glyph-name="ncommaaccent" unicode="&#x146;" 
d="M281 -317l45 215h315l-35 -166q-18 -92 -76 -138q-51 -45 -107 -59t-147 -14l19 86q55 6 83 22t44 54h-141zM1196 795q0 -88 -37 -230l-127 -565h-348l121 563q20 98 20 147t-34 84q-64 63 -200 11q-22 -7 -41 -27l-32 -32t-25 -44q-13 -31 -23 -51t-28 -106t-20 -94
l-94 -451h-348l221 1063h348l-29 -129h4q42 61 140 110q98 50 233 50t217 -81t82 -218z" />
    <glyph glyph-name="Ncaron" unicode="&#x147;" horiz-adv-x="1517" 
d="M575 1862h256l93 -168l155 168h262l-297 -299h-299zM-33 0l305 1462h392l342 -956h4l182 956h369l-306 -1462h-391l-338 956h-4l-186 -956h-369z" />
    <glyph glyph-name="ncaron" unicode="&#x148;" 
d="M399 1481h256l93 -168l155 168h262l-297 -299h-299zM1196 795q0 -88 -37 -230l-127 -565h-348l121 563q20 98 20 147t-34 84q-64 63 -200 11q-22 -7 -41 -27l-32 -32t-25 -44q-13 -31 -23 -51t-28 -106t-20 -94l-94 -451h-348l221 1063h348l-29 -129h4q42 61 140 110
q98 50 233 50t217 -81t82 -218z" />
    <glyph glyph-name="napostrophe" unicode="&#x149;" horiz-adv-x="1347" 
d="M193 1462l45 215h315l-35 -166q-18 -92 -76 -137q-51 -45 -107 -59t-147 -15l19 86q55 6 83 22t44 54h-141zM1253 795q0 -88 -36 -230l-127 -565h-349l121 563q20 98 20 147q0 50 -34 84q-35 34 -79 34q-115 -1 -162 -51l-32 -32q-12 -12 -25 -43q-14 -31 -20 -44
q-18 -35 -26 -89q-9 -54 -25 -118l-94 -451h-348l221 1063h348l-28 -129h4q43 61 140 110q97 50 232 50t217 -81t82 -218z" />
    <glyph glyph-name="Omacron" unicode="&#x14c;" horiz-adv-x="1593" 
d="M1339 1632h-780l33 162h780zM68 616q0 373 225 625t594 252q189 0 338 -68q93 -41 159 -105t110 -180q44 -114 44 -266q0 -397 -222 -651t-605 -254q-307 0 -475 170t-168 477zM449 614q-1 -150 73 -240t210 -91q136 0 236 94q189 179 189 491t-283 312q-106 0 -191 -54
q-147 -93 -209 -321q-25 -97 -25 -191z" />
    <glyph glyph-name="omacron" unicode="&#x14d;" horiz-adv-x="1251" 
d="M1071 1251h-780l33 162h780zM18 432q0 287 174 474t459 188q223 0 363 -124t139 -345q0 -289 -170 -472t-455 -184q-230 0 -370 119t-140 344zM367 435q0 -89 41 -149t131 -60t153 64q113 117 113 320q0 227 -176 228q-88 0 -151 -71q-111 -127 -111 -332z" />
    <glyph glyph-name="Obreve" unicode="&#x14e;" horiz-adv-x="1593" 
d="M621 1864h141q8 -144 185 -144t241 144h145q-62 -304 -384 -304q-165 0 -255 76q-89 76 -73 228zM68 616q0 373 225 625t594 252q189 0 338 -68q93 -41 159 -105t110 -180q44 -114 44 -266q0 -397 -222 -651t-605 -254q-307 0 -475 170t-168 477zM449 614
q-1 -150 73 -240t210 -91q136 0 236 94q189 179 189 491t-283 312q-106 0 -191 -54q-147 -93 -209 -321q-25 -97 -25 -191z" />
    <glyph glyph-name="obreve" unicode="&#x14f;" horiz-adv-x="1251" 
d="M375 1483h141q8 -143 185 -143t241 143h145q-61 -303 -383 -303q-166 0 -256 76t-73 227zM18 432q0 287 174 474t459 188q223 0 363 -124t139 -345q0 -289 -170 -472t-455 -184q-230 0 -370 119t-140 344zM367 435q0 -89 41 -149t131 -60t153 64q113 117 113 320
q0 227 -176 228q-88 0 -151 -71q-111 -127 -111 -332z" />
    <glyph glyph-name="Ohungarumlaut" unicode="&#x150;" horiz-adv-x="1593" 
d="M768 1862h379l-367 -299h-231zM1255 1862h379l-366 -299h-232zM68 616q0 373 225 625t594 252q189 0 338 -68q93 -41 159 -105t110 -180q44 -114 44 -266q0 -397 -222 -651t-605 -254q-307 0 -475 170t-168 477zM449 614q-1 -150 73 -240t210 -91q136 0 236 94
q189 179 189 491t-283 312q-106 0 -191 -54q-147 -93 -209 -321q-25 -97 -25 -191z" />
    <glyph glyph-name="ohungarumlaut" unicode="&#x151;" horiz-adv-x="1251" 
d="M526 1481h379l-366 -299h-232zM1014 1481h379l-367 -299h-231zM18 432q0 287 174 474t459 188q223 0 363 -124t139 -345q0 -289 -170 -472t-455 -184q-230 0 -370 119t-140 344zM367 435q0 -89 41 -149t131 -60t153 64q113 117 113 320q0 227 -176 228q-88 0 -151 -71
q-111 -127 -111 -332z" />
    <glyph glyph-name="OE" unicode="&#x152;" horiz-adv-x="2275" 
d="M68 600q0 229 94 431t278 332t418 130q139 0 226 -34t149 -118l22 121h1078l-70 -327h-704l-50 -234h639l-61 -295h-639l-57 -278h712l-67 -328h-1059l27 115h-5q-117 -145 -386 -145t-407 174q-138 175 -138 456zM886 1180q-114 0 -200 -56q-151 -99 -212 -336
q-26 -100 -26 -218t66 -203q64 -84 199 -84q195 0 305 174t110 452q0 133 -64 202t-178 69z" />
    <glyph glyph-name="oe" unicode="&#x153;" horiz-adv-x="1933" 
d="M1057 416v-31q0 -80 49 -130t139 -50q143 0 203 117h336q-58 -182 -204 -268t-347 -85q-264 0 -369 160q-141 -160 -358 -160q-487 0 -488 492q0 266 178 449q178 184 434 184q255 0 367 -156q147 156 369 156t349 -124q126 -124 126 -347q0 -109 -16 -177h-766
q-2 -10 -2 -30zM637 858q-139 0 -205 -129t-65 -301q0 -223 161 -223q76 0 131 46q93 78 125 261q12 70 13 137q0 209 -160 209zM1352 858q-209 0 -258 -217h411q12 217 -153 217z" />
    <glyph glyph-name="Racute" unicode="&#x154;" horiz-adv-x="1478" 
d="M655 1563l222 299h378l-366 -299h-234zM821 815q256 0 256 201q0 152 -205 151h-280l-74 -352h303zM715 532h-254l-111 -532h-381l303 1462h717q214 0 333 -72q136 -81 136 -307q0 -170 -83 -276t-251 -131v-4q80 -20 115 -78t35 -166l-6 -272q0 -115 22 -156h-383
q-12 61 -12 84l10 252q0 100 -45 148t-145 48z" />
    <glyph glyph-name="racute" unicode="&#x155;" horiz-adv-x="872" 
d="M326 1182l221 299h379l-367 -299h-233zM729 788q-133 0 -203 -78t-96 -223l-102 -487h-348l221 1063h338l-39 -174h4q55 96 142 150q86 55 178 55t130 -19l-67 -307q-68 20 -158 20z" />
    <glyph glyph-name="Rcommaaccent" unicode="&#x156;" horiz-adv-x="1478" 
d="M416 -317l45 215h315l-35 -166q-18 -92 -75 -138q-52 -45 -108 -59t-146 -14l18 86q55 6 83 22t44 54h-141zM821 815q256 0 256 201q0 152 -205 151h-280l-74 -352h303zM715 532h-254l-111 -532h-381l303 1462h717q214 0 333 -72q136 -81 136 -307q0 -170 -83 -276
t-251 -131v-4q80 -20 115 -78t35 -166l-6 -272q0 -115 22 -156h-383q-12 61 -12 84l10 252q0 100 -45 148t-145 48z" />
    <glyph glyph-name="rcommaaccent" unicode="&#x157;" horiz-adv-x="872" 
d="M-68 -317l45 215h316l-35 -166q-18 -92 -76 -138q-51 -45 -107 -59t-147 -14l19 86q55 6 83 22t44 54h-142zM729 788q-133 0 -203 -78t-96 -223l-102 -487h-348l221 1063h338l-39 -174h4q55 96 142 150q86 55 178 55t130 -19l-67 -307q-68 20 -158 20z" />
    <glyph glyph-name="Rcaron" unicode="&#x158;" horiz-adv-x="1478" 
d="M541 1862h256l92 -168l155 168h263l-297 -299h-299zM821 815q256 0 256 201q0 152 -205 151h-280l-74 -352h303zM715 532h-254l-111 -532h-381l303 1462h717q214 0 333 -72q136 -81 136 -307q0 -170 -83 -276t-251 -131v-4q80 -20 115 -78t35 -166l-6 -272
q0 -115 22 -156h-383q-12 61 -12 84l10 252q0 100 -45 148t-145 48z" />
    <glyph glyph-name="rcaron" unicode="&#x159;" horiz-adv-x="872" 
d="M211 1481h256l92 -168l156 168h262l-297 -299h-299zM729 788q-133 0 -203 -78t-96 -223l-102 -487h-348l221 1063h338l-39 -174h4q55 96 142 150q86 55 178 55t130 -19l-67 -307q-68 20 -158 20z" />
    <glyph glyph-name="Sacute" unicode="&#x15a;" horiz-adv-x="1366" 
d="M649 1563l221 299h379l-366 -299h-234zM942 1022q0 158 -205 158q-78 0 -135 -34t-57 -97t59 -91q39 -18 166 -52t196 -64q182 -80 243 -212q38 -79 38 -181q0 -205 -175 -343q-174 -138 -464 -137q-290 -1 -451 135t-157 388h381q1 -115 65 -162t189 -47t178 40t53 94
t-22 85q-42 56 -262 114t-331 168q-87 86 -87 240t89 264q165 204 505 205q243 0 408 -107t157 -364h-381z" />
    <glyph glyph-name="sacute" unicode="&#x15b;" horiz-adv-x="1099" 
d="M477 1182l221 299h379l-366 -299h-234zM456 195q174 0 173 108q-1 42 -17 57t-27 22t-38 15t-51 15t-142 33q-118 27 -195 89t-77 182q0 222 173 305q147 71 335 72q187 1 312 -69q67 -36 103 -106t29 -168h-315q4 59 -28 94t-99 35q-66 0 -114 -25t-48 -67t20 -56
q48 -34 90 -43q43 -10 75 -17q210 -46 286 -110q76 -63 76 -207q0 -385 -545 -385q-441 0 -455 379h320q-2 -66 39 -110q46 -43 120 -43z" />
    <glyph glyph-name="Scircumflex" unicode="&#x15c;" horiz-adv-x="1366" 
d="M680 1563h-262l297 299h299l170 -299h-256l-92 168zM942 1022q0 158 -205 158q-78 0 -135 -34t-57 -97t59 -91q39 -18 166 -52t196 -64q182 -80 243 -212q38 -79 38 -181q0 -205 -175 -343q-174 -138 -464 -137q-290 -1 -451 135t-157 388h381q1 -115 65 -162t189 -47
t178 40t53 94t-22 85q-42 56 -262 114t-331 168q-87 86 -87 240t89 264q165 204 505 205q243 0 408 -107t157 -364h-381z" />
    <glyph glyph-name="scircumflex" unicode="&#x15d;" horiz-adv-x="1099" 
d="M506 1182h-262l297 299h299l170 -299h-256l-92 168zM456 195q174 0 173 108q-1 42 -17 57t-27 22t-38 15t-51 15t-142 33q-118 27 -195 89t-77 182q0 222 173 305q147 71 335 72q187 1 312 -69q67 -36 103 -106t29 -168h-315q4 59 -28 94t-99 35q-66 0 -114 -25t-48 -67
t20 -56q48 -34 90 -43q43 -10 75 -17q210 -46 286 -110q76 -63 76 -207q0 -385 -545 -385q-441 0 -455 379h320q-2 -66 39 -110q46 -43 120 -43z" />
    <glyph glyph-name="Scedilla" unicode="&#x15e;" horiz-adv-x="1366" 
d="M942 1022q0 158 -205 158q-78 0 -135 -34t-57 -97t59 -91q39 -18 166 -52t196 -64q182 -80 243 -212q38 -79 38 -181q0 -205 -175 -343t-482 -137l-80 -98v-4q23 6 77 6t105 -43t51 -111q-10 -203 -278 -198q-119 0 -232 57l52 90q80 -41 155 -41q117 0 117 88
q0 62 -80 64q-43 0 -71 -15l-46 52l121 159q-267 34 -391 203q-92 125 -90 314h381q1 -115 65 -162t189 -47t178 40t53 94t-22 85q-42 56 -262 114t-331 168q-87 86 -87 240t89 264q165 204 505 205q243 0 408 -107t157 -364h-381z" />
    <glyph glyph-name="Scedilla" unicode="&#xf6c1;" horiz-adv-x="1366" 
d="M942 1022q0 158 -205 158q-78 0 -135 -34t-57 -97t59 -91q39 -18 166 -52t196 -64q182 -80 243 -212q38 -79 38 -181q0 -205 -175 -343t-482 -137l-80 -98v-4q23 6 77 6t105 -43t51 -111q-10 -203 -278 -198q-119 0 -232 57l52 90q80 -41 155 -41q117 0 117 88
q0 62 -80 64q-43 0 -71 -15l-46 52l121 159q-267 34 -391 203q-92 125 -90 314h381q1 -115 65 -162t189 -47t178 40t53 94t-22 85q-42 56 -262 114t-331 168q-87 86 -87 240t89 264q165 204 505 205q243 0 408 -107t157 -364h-381z" />
    <glyph glyph-name="scedilla" unicode="&#x15f;" horiz-adv-x="1099" 
d="M305 -373q117 0 117 88q0 61 -86 63q-38 0 -66 -14l-45 52l119 157q-35 4 -96 17q-258 66 -271 358h320q-2 -66 39 -110q46 -43 120 -43q174 0 173 108q-1 42 -17 57t-27 22t-38 15t-51 15t-142 33q-118 27 -195 89t-77 182q0 222 173 305q147 71 335 72q187 1 312 -69
q67 -36 103 -106t29 -168h-315q4 59 -28 94t-99 35q-66 0 -114 -25t-48 -67t20 -56q48 -34 90 -43q43 -10 75 -17q210 -46 286 -110q76 -63 76 -219t-98 -245t-256 -113q-74 -10 -168 -15l-80 -98v-4q23 6 77 6t105 -43t51 -111q-10 -203 -278 -198q-119 0 -232 57l52 90
q80 -41 155 -41z" />
    <glyph glyph-name="scedilla" unicode="&#xf6c2;" horiz-adv-x="1099" 
d="M305 -373q117 0 117 88q0 61 -86 63q-38 0 -66 -14l-45 52l119 157q-35 4 -96 17q-258 66 -271 358h320q-2 -66 39 -110q46 -43 120 -43q174 0 173 108q-1 42 -17 57t-27 22t-38 15t-51 15t-142 33q-118 27 -195 89t-77 182q0 222 173 305q147 71 335 72q187 1 312 -69
q67 -36 103 -106t29 -168h-315q4 59 -28 94t-99 35q-66 0 -114 -25t-48 -67t20 -56q48 -34 90 -43q43 -10 75 -17q210 -46 286 -110q76 -63 76 -219t-98 -245t-256 -113q-74 -10 -168 -15l-80 -98v-4q23 6 77 6t105 -43t51 -111q-10 -203 -278 -198q-119 0 -232 57l52 90
q80 -41 155 -41z" />
    <glyph glyph-name="Scaron" unicode="&#x160;" horiz-adv-x="1366" 
d="M492 1862h256l92 -168l155 168h262l-296 -299h-299zM942 1022q0 158 -205 158q-78 0 -135 -34t-57 -97t59 -91q39 -18 166 -52t196 -64q182 -80 243 -212q38 -79 38 -181q0 -205 -175 -343q-174 -138 -464 -137q-290 -1 -451 135t-157 388h381q1 -115 65 -162t189 -47
t178 40t53 94t-22 85q-42 56 -262 114t-331 168q-87 86 -87 240t89 264q165 204 505 205q243 0 408 -107t157 -364h-381z" />
    <glyph glyph-name="scaron" unicode="&#x161;" horiz-adv-x="1099" 
d="M295 1481h256l92 -168l156 168h262l-297 -299h-299zM456 195q174 0 173 108q-1 42 -17 57t-27 22t-38 15t-51 15t-142 33q-118 27 -195 89t-77 182q0 222 173 305q147 71 335 72q187 1 312 -69q67 -36 103 -106t29 -168h-315q4 59 -28 94t-99 35q-66 0 -114 -25t-48 -67
t20 -56q48 -34 90 -43q43 -10 75 -17q210 -46 286 -110q76 -63 76 -207q0 -385 -545 -385q-441 0 -455 379h320q-2 -66 39 -110q46 -43 120 -43z" />
    <glyph glyph-name="Tcommaaccent" unicode="&#x162;" 
d="M270 -317l45 215h316l-35 -166q-18 -92 -76 -138q-51 -45 -107 -59t-147 -14l19 86q55 6 83 22t44 54h-142zM1413 1462l-65 -327h-430l-240 -1135h-381l240 1135h-431l66 327h1241z" />
    <glyph glyph-name="tcommaaccent" unicode="&#x163;" horiz-adv-x="796" 
d="M131 -317l45 215h316l-35 -166q-18 -92 -76 -138q-51 -45 -107 -59t-147 -14l18 86q55 6 83 22t44 54h-141zM461 313q-1 -39 27 -49t66 -10t77 3t47 3l-53 -260q-143 -12 -208 -12t-116 6q-209 25 -209 178q0 88 41 281l82 385h-176l47 225h176l68 319h348l-66 -319h219
l-47 -225h-221l-84 -402q-18 -84 -18 -123z" />
    <glyph glyph-name="Tcaron" unicode="&#x164;" 
d="M475 1862h256l92 -168l156 168h262l-297 -299h-299zM1413 1462l-65 -327h-430l-240 -1135h-381l240 1135h-431l66 327h1241z" />
    <glyph glyph-name="tcaron" unicode="&#x165;" horiz-adv-x="972" 
d="M461 313q-1 -39 27 -49t66 -10t77 3t47 3l-53 -260q-143 -12 -208 -12t-116 6q-209 25 -209 178q0 88 41 281l82 385h-176l47 225h176l68 319h348l-66 -319h219l-47 -225h-221l-84 -402q-18 -84 -18 -123zM946 1462h314l-236 -305h-213z" />
    <glyph glyph-name="Tbar" unicode="&#x166;" 
d="M1413 1462l-65 -327h-430l-58 -267h301l-33 -161h-301l-149 -707h-381l149 707h-311l33 161h311l58 267h-431l66 327h1241z" />
    <glyph glyph-name="tbar" unicode="&#x167;" horiz-adv-x="796" 
d="M461 313q-1 -39 27 -49t66 -10t77 3t47 3l-53 -260q-143 -12 -208 -12t-116 6q-209 25 -209 178q0 88 41 281l8 45h-194l33 161h196l39 179h-176l47 225h176l68 319h348l-66 -319h219l-47 -225h-221l-37 -179h240l-33 -161h-241l-13 -62q-18 -84 -18 -123z" />
    <glyph glyph-name="Utilde" unicode="&#x168;" horiz-adv-x="1517" 
d="M1114 1579q-53 0 -135 29l-84 28q-71 23 -93 23t-44 -23t-31 -61h-160q14 104 82 187t166 83q41 0 113 -26l92 -35q55 -23 98 -23q51 0 76 90h160q-55 -272 -240 -272zM650 283q150 0 234 76q61 58 100 201q12 48 24 95t14 54l158 753h381l-175 -835q-26 -131 -56 -220
t-83 -179q-151 -258 -583 -259q-283 0 -441 121t-157 301q0 133 40 307l166 764h381l-170 -782q-4 -18 -11 -53t-15 -72t-10 -109q-1 -71 57 -117q56 -46 146 -46z" />
    <glyph glyph-name="utilde" unicode="&#x169;" 
d="M913 1198q-53 0 -135 29l-84 28q-70 23 -92 23t-46 -23q-22 -23 -30 -61h-159q14 104 82 187t165 83q41 0 113 -26l92 -35q55 -23 99 -23q50 0 75 90h160q-55 -272 -240 -272zM352 -31q-100 0 -170 34t-98 86q-48 88 -49 162q0 73 20 167l138 645h348l-121 -590
q-14 -66 -14 -127q0 -111 114 -110q104 0 161 65q56 66 81 186l123 576h348l-225 -1063h-334l31 145h-5q-117 -176 -348 -176z" />
    <glyph glyph-name="Umacron" unicode="&#x16a;" horiz-adv-x="1517" 
d="M1329 1632h-780l33 162h780zM650 283q150 0 234 76q61 58 100 201q12 48 24 95t14 54l158 753h381l-175 -835q-26 -131 -56 -220t-83 -179q-151 -258 -583 -259q-283 0 -441 121t-157 301q0 133 40 307l166 764h381l-170 -782q-4 -18 -11 -53t-15 -72t-10 -109
q-1 -71 57 -117q56 -46 146 -46z" />
    <glyph glyph-name="umacron" unicode="&#x16b;" 
d="M1137 1251h-781l33 162h780zM352 -31q-100 0 -170 34t-98 86q-48 88 -49 162q0 73 20 167l138 645h348l-121 -590q-14 -66 -14 -127q0 -111 114 -110q104 0 161 65q56 66 81 186l123 576h348l-225 -1063h-334l31 145h-5q-117 -176 -348 -176z" />
    <glyph glyph-name="Ubreve" unicode="&#x16c;" horiz-adv-x="1517" 
d="M608 1864h142q8 -144 185 -144t241 144h145q-62 -304 -384 -304q-165 0 -255 76t-74 228zM650 283q150 0 234 76q61 58 100 201q12 48 24 95t14 54l158 753h381l-175 -835q-26 -131 -56 -220t-83 -179q-151 -258 -583 -259q-283 0 -441 121t-157 301q0 133 40 307
l166 764h381l-170 -782q-4 -18 -11 -53t-15 -72t-10 -109q-1 -71 57 -117q56 -46 146 -46z" />
    <glyph glyph-name="ubreve" unicode="&#x16d;" 
d="M410 1483h141q8 -143 185 -143t241 143h145q-62 -303 -384 -303q-165 0 -255 75q-89 76 -73 228zM352 -31q-100 0 -170 34t-98 86q-48 88 -49 162q0 73 20 167l138 645h348l-121 -590q-14 -66 -14 -127q0 -111 114 -110q104 0 161 65q56 66 81 186l123 576h348
l-225 -1063h-334l31 145h-5q-117 -176 -348 -176z" />
    <glyph glyph-name="Uring" unicode="&#x16e;" horiz-adv-x="1517" 
d="M928 1622q45 0 76 32q30 32 30 77t-30 75t-76 29q-45 0 -76 -30q-31 -31 -31 -75t31 -76t76 -32zM928 1518q-92 0 -156 60q-63 60 -63 152t63 150q64 59 156 59t155 -58t63 -151q0 -92 -62 -152q-64 -60 -156 -60zM650 283q150 0 234 76q61 58 100 201q12 48 24 95t14 54
l158 753h381l-175 -835q-26 -131 -56 -220t-83 -179q-151 -258 -583 -259q-283 0 -441 121t-157 301q0 133 40 307l166 764h381l-170 -782q-4 -18 -11 -53t-15 -72t-10 -109q-1 -71 57 -117q56 -46 146 -46z" />
    <glyph glyph-name="uring" unicode="&#x16f;" 
d="M735 1262q45 0 76 32t31 76q0 45 -31 75t-76 30t-76 -30t-31 -75t31 -77q31 -31 76 -31zM735 1157q-92 1 -155 61q-64 60 -64 151t64 151t155 59q91 0 155 -58q64 -57 64 -151t-64 -154t-155 -59zM352 -31q-100 0 -170 34t-98 86q-48 88 -49 162q0 73 20 167l138 645h348
l-121 -590q-14 -66 -14 -127q0 -111 114 -110q104 0 161 65q56 66 81 186l123 576h348l-225 -1063h-334l31 145h-5q-117 -176 -348 -176z" />
    <glyph glyph-name="Uhungarumlaut" unicode="&#x170;" horiz-adv-x="1517" 
d="M791 1862h378l-366 -299h-232zM1278 1862h379l-367 -299h-231zM650 283q150 0 234 76q61 58 100 201q12 48 24 95t14 54l158 753h381l-175 -835q-26 -131 -56 -220t-83 -179q-151 -258 -583 -259q-283 0 -441 121t-157 301q0 133 40 307l166 764h381l-170 -782
q-4 -18 -11 -53t-15 -72t-10 -109q-1 -71 57 -117q56 -46 146 -46z" />
    <glyph glyph-name="uhungarumlaut" unicode="&#x171;" 
d="M590 1481h379l-367 -299h-231zM1077 1481h379l-366 -299h-232zM352 -31q-100 0 -170 34t-98 86q-48 88 -49 162q0 73 20 167l138 645h348l-121 -590q-14 -66 -14 -127q0 -111 114 -110q104 0 161 65q56 66 81 186l123 576h348l-225 -1063h-334l31 145h-5
q-117 -176 -348 -176z" />
    <glyph glyph-name="Uogonek" unicode="&#x172;" horiz-adv-x="1517" 
d="M66 391q0 133 40 307l166 764h381l-170 -782q-4 -18 -11 -53t-15 -72t-10 -109q-1 -71 57 -117t146 -46q150 0 234 76q61 58 100 201q12 48 24 95t14 54l158 753h381l-175 -835q-46 -228 -126 -378q-143 -263 -543 -278q-207 -148 -207 -237q0 -70 71 -70t126 76l90 -33
q-117 -186 -293 -186q-70 0 -129 36t-60 128q0 145 244 288q-275 29 -405 183q-88 102 -88 235z" />
    <glyph glyph-name="uogonek" unicode="&#x173;" 
d="M625 -266q0 -70 61 -70q66 0 115 76l82 -33q-106 -186 -265 -186q-63 0 -116 36t-53 128q-8 55 50 142t175 173l31 145h-5q-117 -176 -348 -176q-100 0 -170 34t-98 86q-48 88 -49 162q0 73 20 167l138 645h348l-121 -590q-14 -66 -14 -127q0 -111 114 -110q104 0 161 65
q56 66 81 186l123 576h348l-225 -1063h-197q-186 -170 -186 -266z" />
    <glyph glyph-name="Wcircumflex" unicode="&#x174;" horiz-adv-x="1933" 
d="M993 1563h-262l297 299h299l170 -299h-256l-92 168zM1284 1462v-1065h4l414 1065h391l-694 -1462h-383v989h-4l-398 -989h-383l-102 1462h383l-10 -1065h4l430 1065h348z" />
    <glyph glyph-name="wcircumflex" unicode="&#x175;" horiz-adv-x="1705" 
d="M815 1182h-262l297 299h299l170 -299h-256l-92 168zM184 0l-112 1063h346l26 -737h5l305 737h336l22 -737h4l309 737h367l-553 -1063h-360l-23 721h-4l-307 -721h-361z" />
    <glyph glyph-name="Ycircumflex" unicode="&#x176;" horiz-adv-x="1327" 
d="M670 1563h-262l297 299h299l170 -299h-256l-93 168zM322 0l116 553l-338 909h394l174 -608l407 608h457l-717 -909l-117 -553h-376z" />
    <glyph glyph-name="ycircumflex" unicode="&#x177;" horiz-adv-x="1099" 
d="M496 1182h-263l297 299h299l170 -299h-256l-92 168zM64 -90q50 0 71 3q46 7 83 76q17 32 22 38l-197 1036h354l80 -748h4l318 748h364l-540 -1014q-8 -13 -42 -75t-61 -105t-74 -99t-93 -76q-119 -50 -290 -50q-54 0 -169 12l57 262q63 -8 113 -8z" />
    <glyph glyph-name="Ydieresis" unicode="&#x178;" horiz-adv-x="1327" 
d="M739 1579h-315l55 266h316zM1176 1579h-316l55 266h316zM322 0l116 553l-338 909h394l174 -608l407 608h457l-717 -909l-117 -553h-376z" />
    <glyph glyph-name="Zacute" unicode="&#x179;" horiz-adv-x="1366" 
d="M684 1563l221 299h379l-366 -299h-234zM-88 0l63 328l916 807h-713l68 327h1196l-66 -327l-942 -807h803l-66 -328h-1259z" />
    <glyph glyph-name="zacute" unicode="&#x17a;" horiz-adv-x="1099" 
d="M494 1182l221 299h379l-367 -299h-233zM-86 0l57 256l643 551h-497l53 256h924l-54 -256l-645 -551h578l-55 -256h-1004z" />
    <glyph glyph-name="Zdotaccent" unicode="&#x17b;" horiz-adv-x="1366" 
d="M989 1579h-315l55 266h315zM-88 0l63 328l916 807h-713l68 327h1196l-66 -327l-942 -807h803l-66 -328h-1259z" />
    <glyph glyph-name="zdotaccent" unicode="&#x17c;" horiz-adv-x="1099" 
d="M803 1198h-316l56 266h315zM-86 0l57 256l643 551h-497l53 256h924l-54 -256l-645 -551h578l-55 -256h-1004z" />
    <glyph glyph-name="Zcaron" unicode="&#x17d;" horiz-adv-x="1366" 
d="M514 1862h256l92 -168l156 168h262l-297 -299h-299zM-88 0l63 328l916 807h-713l68 327h1196l-66 -327l-942 -807h803l-66 -328h-1259z" />
    <glyph glyph-name="zcaron" unicode="&#x17e;" horiz-adv-x="1099" 
d="M303 1481h256l92 -168l156 168h262l-297 -299h-299zM-86 0l57 256l643 551h-497l53 256h924l-54 -256l-645 -551h578l-55 -256h-1004z" />
    <glyph glyph-name="florin" unicode="&#x192;" 
d="M148 -90q94 0 137 137l168 598h-201l61 215h201l66 232q59 209 160 305t294 96q104 0 197 -27l-72 -247l-74 8q-69 0 -103 -32t-54 -103l-66 -232h203l-59 -215h-205l-170 -598q-27 -99 -53 -159q-108 -246 -388 -244q-88 0 -190 12l72 260q32 -6 76 -6z" />
    <glyph glyph-name="Scommaaccent" unicode="&#x218;" horiz-adv-x="1366" 
d="M383 -317l45 215h315l-34 -166q-18 -92 -76 -138q-51 -45 -107 -59t-147 -14l18 86q55 6 83 22t44 54h-141zM942 1022q0 158 -205 158q-78 0 -135 -34t-57 -97t59 -91q39 -18 166 -52t196 -64q182 -80 243 -212q38 -79 38 -181q0 -205 -175 -343q-174 -138 -464 -137
q-290 -1 -451 135t-157 388h381q1 -115 65 -162t189 -47t178 40t53 94t-22 85q-42 56 -262 114t-331 168q-87 86 -87 240t89 264q165 204 505 205q243 0 408 -107t157 -364h-381z" />
    <glyph glyph-name="scommaaccent" unicode="&#x219;" horiz-adv-x="1099" 
d="M236 -317l45 215h315l-35 -166q-18 -92 -76 -138q-51 -45 -107 -59t-147 -14l19 86q55 6 83 22t44 54h-141zM456 195q174 0 173 108q-1 42 -17 57t-27 22t-38 15t-51 15t-142 33q-118 27 -195 89t-77 182q0 222 173 305q147 71 335 72q187 1 312 -69q67 -36 103 -106
t29 -168h-315q4 59 -28 94t-99 35q-66 0 -114 -25t-48 -67t20 -56q48 -34 90 -43q43 -10 75 -17q210 -46 286 -110q76 -63 76 -207q0 -385 -545 -385q-441 0 -455 379h320q-2 -66 39 -110q46 -43 120 -43z" />
    <glyph glyph-name="uni021A" unicode="&#x21a;" 
d="M270 -317l45 215h316l-35 -166q-18 -92 -76 -138q-51 -45 -107 -59t-147 -14l19 86q55 6 83 22t44 54h-142zM1413 1462l-65 -327h-430l-240 -1135h-381l240 1135h-431l66 327h1241z" />
    <glyph glyph-name="uni021B" unicode="&#x21b;" horiz-adv-x="796" 
d="M131 -317l45 215h316l-35 -166q-18 -92 -76 -138q-51 -45 -107 -59t-147 -14l18 86q55 6 83 22t44 54h-141zM461 313q-1 -39 27 -49t66 -10t77 3t47 3l-53 -260q-143 -12 -208 -12t-116 6q-209 25 -209 178q0 88 41 281l82 385h-176l47 225h176l68 319h348l-66 -319h219
l-47 -225h-221l-84 -402q-18 -84 -18 -123z" />
    <glyph glyph-name="circumflex" unicode="&#x2c6;" horiz-adv-x="530" 
d="M219 1182h-262l297 299h299l170 -299h-256l-92 168z" />
    <glyph glyph-name="caron" unicode="&#x2c7;" horiz-adv-x="530" 
d="M23 1481h256l92 -168l155 168h262l-296 -299h-299z" />
    <glyph glyph-name="uni02C9" unicode="&#x2c9;" horiz-adv-x="530" 
d="M758 1251h-781l33 162h781z" />
    <glyph glyph-name="breve" unicode="&#x2d8;" horiz-adv-x="530" 
d="M37 1483h141q8 -143 185 -143t241 143h146q-62 -303 -384 -303q-166 0 -256 76t-73 227z" />
    <glyph glyph-name="dotaccent" unicode="&#x2d9;" horiz-adv-x="530" 
d="M557 1198h-315l55 266h315z" />
    <glyph glyph-name="ring" unicode="&#x2da;" horiz-adv-x="530" 
d="M506 1262q45 0 76 32q30 32 30 76q0 45 -30 75q-31 30 -76 30t-76 -30t-31 -75q0 -44 31 -76t76 -32zM506 1157q-92 1 -156 61t-63 151q0 91 63 151q64 60 156 59q92 0 156 -58q64 -57 63 -151q1 -94 -63 -154t-156 -59z" />
    <glyph glyph-name="ogonek" unicode="&#x2db;" horiz-adv-x="530" 
d="M188 -266q0 -70 71 -70t126 76l90 -33q-117 -186 -293 -186q-70 0 -129 36t-59 128q0 159 295 315h151q-252 -170 -252 -266z" />
    <glyph glyph-name="tilde" unicode="&#x2dc;" horiz-adv-x="530" 
d="M535 1198q-53 0 -136 29l-84 28q-71 23 -93 23t-44 -23t-31 -61h-159q14 104 82 187t166 83q41 0 112 -26l92 -35q55 -23 99 -23q50 0 75 90h160q-55 -272 -239 -272z" />
    <glyph glyph-name="hungarumlaut" unicode="&#x2dd;" horiz-adv-x="530" 
d="M217 1481h379l-367 -299h-231zM705 1481h378l-366 -299h-232z" />
    <glyph glyph-name="uni0394" unicode="&#x394;" horiz-adv-x="1470" 
d="M946 293l-127 821l-432 -821h559zM1300 0h-1421l823 1458h351z" />
    <glyph glyph-name="uni03A9" unicode="&#x3a9;" horiz-adv-x="1554" 
d="M1475 958q-1 -232 -133 -410q-132 -179 -338 -214l-13 -53h363l-60 -281h-616l94 451q160 25 253 151t93 274q0 150 -72 233q-73 83 -204 83q-178 0 -297 -144t-119 -327q0 -227 195 -270l-95 -451h-606l60 281h350l12 55q-260 94 -260 393q0 213 111 386t291 267t412 94
t406 -142q174 -144 173 -376z" />
    <glyph glyph-name="uni03BC" unicode="&#x3bc;" 
d="M441 -31q-65 0 -103 45l-78 -370h-348l297 1419h348l-121 -590q-14 -66 -14 -127q0 -111 115 -110q104 0 160 66t81 185l123 576h348l-225 -1063h-334l31 145h-4q-49 -74 -130 -125t-146 -51z" />
    <glyph glyph-name="pi" unicode="&#x3c0;" horiz-adv-x="1280" 
d="M981 284q0 -42 51 -42t105 24l-47 -225q-130 -59 -224 -59t-156 36t-62 106t18 155l98 454h-299l-158 -733h-307l158 733h-152l60 281h1228l-59 -281h-166l-72 -336q-16 -71 -16 -113z" />
    <glyph glyph-name="endash" unicode="&#x2013;" horiz-adv-x="1024" 
d="M1012 410h-1024l24 295h1024z" />
    <glyph glyph-name="emdash" unicode="&#x2014;" horiz-adv-x="2048" 
d="M1769 410h-1515l25 295h1515z" />
    <glyph glyph-name="quoteleft" unicode="&#x2018;" horiz-adv-x="606" 
d="M553 1106l-76 -361h-332l76 361q84 342 406 356l-35 -159q-78 -3 -126 -57t-60 -140h147z" />
    <glyph glyph-name="quoteright" unicode="&#x2019;" horiz-adv-x="606" 
d="M227 1102l76 360h332l-76 -360q-88 -348 -405 -357l34 160q78 3 126 57t61 140h-148z" />
    <glyph glyph-name="quotesinglbase" unicode="&#x201a;" horiz-adv-x="606" 
d="M-2 0l76 360h332l-76 -360q-88 -348 -406 -356l35 159q78 3 126 57t60 140h-147z" />
    <glyph glyph-name="quotedblleft" unicode="&#x201c;" horiz-adv-x="1024" 
d="M1001 1106l-75 -361h-332l76 361q84 342 405 356l-35 -159q-78 -3 -126 -57t-60 -140h147zM539 1106l-76 -361h-332l76 361q84 342 405 356l-34 -159q-78 -3 -126 -57t-61 -140h148z" />
    <glyph glyph-name="quotedblright" unicode="&#x201d;" horiz-adv-x="1024" 
d="M668 1102l75 360h332l-76 -360q-88 -348 -405 -357l35 160q78 3 126 57t60 140h-147zM205 1102l76 360h331l-75 -360q-88 -348 -406 -357l35 160q78 3 126 57t60 140h-147z" />
    <glyph glyph-name="quotedblbase" unicode="&#x201e;" horiz-adv-x="1024" 
d="M434 0l76 360h332l-76 -360q-88 -348 -406 -356l35 159q78 3 126 57t61 140h-148zM-29 0l76 360h332l-76 -360q-88 -348 -405 -356l34 159q78 3 126 57t61 140h-148z" />
    <glyph glyph-name="dagger" unicode="&#x2020;" 
d="M250 -356l233 1126h-368l61 295h369l84 397h338l-84 -397h372l-61 -295h-373l-233 -1126h-338z" />
    <glyph glyph-name="daggerdbl" unicode="&#x2021;" 
d="M250 -356l84 397h-367l62 295h372l93 434h-371l61 295h365l84 397h336l-84 -397h372l-61 -295h-367l-92 -434h363l-62 -295h-368l-84 -397h-336z" />
    <glyph glyph-name="bullet" unicode="&#x2022;" horiz-adv-x="1024" 
d="M147 731q1 152 107 258q106 107 258 107t260 -106t107 -259q0 -151 -108 -259q-107 -108 -259 -108t-258 108q-106 107 -107 259z" />
    <glyph glyph-name="ellipsis" unicode="&#x2026;" horiz-adv-x="2048" 
d="M346 0h-375l76 360h375zM1028 0h-375l76 360h375zM1710 0h-375l76 360h375z" />
    <glyph glyph-name="perthousand" unicode="&#x2030;" horiz-adv-x="2351" 
d="M336 978q0 -101 74 -101q74 1 112 111t37 174q0 64 -2 83q-2 17 -17 37t-46 21q-80 0 -119 -112t-39 -213zM395 -55h-217l1047 1538h217zM395 733q-117 0 -187 71t-69 195q0 191 95 319t274 128q248 0 248 -266q0 -248 -157 -376q-87 -71 -204 -71zM2212 428
q0 -248 -157 -376q-87 -70 -204 -70t-187 70t-69 196q-1 190 95 318t274 128q248 0 248 -266zM1792 226q0 -101 74 -101t112 111t37 175q0 65 -2 83t-17 37t-46 20q-80 0 -119 -112t-39 -213zM1483 428q0 -248 -157 -376q-87 -70 -204 -70q-116 0 -186 70t-70 196
q0 190 96 318t273 128q248 0 248 -266zM1063 226q0 -101 74 -101q73 0 111 111t38 175q0 65 -2 83t-17 37t-46 20q-80 0 -119 -112t-39 -213z" />
    <glyph glyph-name="guilsinglleft" unicode="&#x2039;" horiz-adv-x="493" 
d="M285 119l-269 287l64 303l381 249l-60 -284l-217 -144l152 -163z" />
    <glyph glyph-name="guilsinglright" unicode="&#x203a;" horiz-adv-x="493" 
d="M158 958l268 -286l-64 -303l-380 -250l59 284l217 144l-152 164z" />
    <glyph glyph-name="fraction" unicode="&#x2044;" horiz-adv-x="342" 
d="M-127 -55h-211l805 1538h211z" />
    <glyph glyph-name="afii61289" unicode="&#x2113;" horiz-adv-x="1024" 
d="M786 1186q0 34 -16 58t-41 24q-61 0 -88 -121l-72 -332q97 79 157 179t60 192zM1051 1200q0 -168 -126 -322t-415 -339q-51 -205 -51 -252q0 -84 82 -84q72 0 198 80h4l78 -185q-186 -127 -379 -127q-145 0 -224 71t-79 187q0 23 15 103l-119 -82h-4l-84 180l262 168
l98 469q41 188 163 299t294 111q125 0 206 -80t81 -197z" />
    <glyph glyph-name="trademark" unicode="&#x2122;" horiz-adv-x="2048" 
d="M791 1462v-194h-226v-650h-256v650h-225v194h707zM1964 1462v-844h-225v553h-4l-183 -553h-180l-182 553h-4v-553h-225v844h319l182 -489l183 489h319z" />
    <glyph glyph-name="Omega" unicode="&#x2126;" horiz-adv-x="1554" 
d="M1475 958q-1 -232 -133 -410q-132 -179 -338 -214l-13 -53h363l-60 -281h-616l94 451q160 25 253 151t93 274q0 150 -72 233q-73 83 -204 83q-178 0 -297 -144t-119 -327q0 -227 195 -270l-95 -451h-606l60 281h350l12 55q-260 94 -260 393q0 213 111 386t291 267t412 94
t406 -142q174 -144 173 -376z" />
    <glyph glyph-name="estimated" unicode="&#x212e;" horiz-adv-x="1228" 
d="M322 604h596v297q-130 123 -302 123t-294 -123v-297zM322 530v-370q121 -121 296 -121q250 0 396 246l71 -43q-94 -147 -200 -212t-267 -65q-236 0 -382 162q-146 163 -146 405t146 403t382 161t382 -158t149 -408h-827z" />
    <glyph glyph-name="partialdiff" unicode="&#x2202;" horiz-adv-x="1204" 
d="M576 688q-106 0 -163 -75t-57 -175t50 -173t143 -72q221 0 221 403q-88 92 -194 92zM1083 727q1 -145 -23 -269q-93 -493 -511 -493q-217 0 -353 132q-136 131 -136 341t128 344q129 134 328 136q137 0 258 -89q0 141 -48 263q-26 66 -78 104t-126 39q-119 0 -246 -117
l-165 187q96 86 189 126q92 39 230 39t252 -63q201 -111 272 -408q29 -127 29 -272z" />
    <glyph glyph-name="Delta" unicode="&#x2206;" horiz-adv-x="1470" 
d="M946 293l-127 821l-432 -821h559zM1300 0h-1421l823 1458h351z" />
    <glyph glyph-name="product" unicode="&#x220f;" horiz-adv-x="1550" 
d="M1450 -438h-311v1743h-725v-1743h-314v2048h1350v-2048z" />
    <glyph glyph-name="summation" unicode="&#x2211;" horiz-adv-x="1429" 
d="M1368 -438h-1309v266l592 772l-567 741v269h1259v-307h-845l518 -703l-551 -731h903v-307z" />
    <glyph glyph-name="minus" unicode="&#x2212;" 
d="M1130 371h-1032v295h1032v-295z" />
    <glyph glyph-name="uni2215" unicode="&#x2215;" horiz-adv-x="342" 
d="M-127 -55h-211l805 1538h211z" />
    <glyph glyph-name="uni2219" unicode="&#x2219;" horiz-adv-x="645" 
d="M133 575q0 79 56 135q57 56 135 56t134 -56t56 -134t-56 -135q-56 -56 -134 -56t-135 56q-56 56 -56 134z" />
    <glyph glyph-name="radical" unicode="&#x221a;" horiz-adv-x="1234" 
d="M1204 1610l-459 -2048h-280l-291 594l-119 -56l-112 242l395 180l217 -483l319 1571h330z" />
    <glyph glyph-name="infinity" unicode="&#x221e;" horiz-adv-x="1804" 
d="M461 721q-70 0 -110 -48t-40 -119t41 -116t111 -45q116 0 239 158q-127 170 -241 170zM1409 558q0 73 -42 118t-114 45q-104 0 -235 -170q113 -160 239 -160q72 0 112 47t40 120zM1669 560q-1 -192 -109 -316t-298 -125q-126 0 -218 62t-184 177q-92 -117 -180 -177
t-211 -60q-193 0 -307 123t-113 315q0 192 110 313t300 121q129 1 220 -65t181 -191q88 125 180 191t224 65q186 0 296 -121q110 -120 109 -312z" />
    <glyph glyph-name="integral" unicode="&#x222b;" horiz-adv-x="1345" 
d="M471 952q0 319 55 437q27 57 69 111q84 108 271 108q104 0 194 -52t89 -147q0 -63 -41 -104t-103 -41t-94 32q-31 33 -34 73q-5 40 -15 73t-37 33q-39 0 -39 -82l17 -396l2 -649v-69q-2 -66 1 -165t-20 -204q-22 -105 -52 -161t-70 -98q-88 -91 -254 -89q-106 0 -194 53
q-87 53 -87 154q0 61 40 99t101 38t92 -33t35 -73q10 -105 50 -105t40 82l-16 336v839z" />
    <glyph glyph-name="approxequal" unicode="&#x2248;" horiz-adv-x="1214" 
d="M837 82q-92 0 -278 62t-258 63q-94 0 -108 -111h-201q0 144 89 286t226 142q90 0 261 -60q170 -60 242 -60t96 28q24 29 32 84h205q-14 -231 -141 -360q-73 -74 -165 -74zM-8 598q0 156 91 292t241 136q80 0 255 -59t252 -60q94 0 109 111h203q-14 -226 -149 -359
q-75 -73 -164 -73t-271 62q-183 62 -243 62t-90 -32q-30 -33 -33 -80h-201z" />
    <glyph glyph-name="notequal" unicode="&#x2260;" horiz-adv-x="1214" 
d="M1122 154h-583l-164 -332l-273 135l99 197h-191v309h342l92 184h-434v311h588l162 330l272 -135l-96 -195h186v-311h-340l-92 -184h432v-309z" />
    <glyph glyph-name="lessequal" unicode="&#x2264;" horiz-adv-x="1214" 
d="M1122 -104h-1112v311h1112v-311zM1122 256l-1112 338v307l1112 311v-317l-678 -147l678 -173v-319z" />
    <glyph glyph-name="greaterequal" unicode="&#x2265;" horiz-adv-x="1214" 
d="M1122 -104h-1112v311h1112v-311zM1122 594l-1112 -338v319l680 173l-680 147v317l1112 -311v-307z" />
    <glyph glyph-name="lozenge" unicode="&#x25ca;" horiz-adv-x="1214" 
d="M1143 729l-398 -801h-282l-391 801l395 801h278zM821 729l-215 485l-217 -485l217 -485z" />
    <glyph glyph-name="commaaccent" unicode="&#xf004;" horiz-adv-x="645" 
d="M53 -317l45 215h316l-35 -166q-18 -92 -76 -138q-51 -45 -107 -59t-147 -14l19 86q55 6 83 22t44 54h-142z" />
    <glyph glyph-name="commaaccent" unicode="&#xf6c3;" horiz-adv-x="645" 
d="M53 -317l45 215h316l-35 -166q-18 -92 -76 -138q-51 -45 -107 -59t-147 -14l19 86q55 6 83 22t44 54h-142z" />
    <glyph glyph-name="dotlessj" unicode="&#xf6be;" horiz-adv-x="606" 
d="M-135 -90q63 0 88 34t41 115l209 1004h346l-205 -987q-51 -250 -140 -341t-310 -91h-168l59 266h80z" />
    <glyph glyph-name="dotlessj" unicode="&#xfb0f;" horiz-adv-x="606" 
d="M-135 -90q63 0 88 34t41 115l209 1004h346l-205 -987q-51 -250 -140 -341t-310 -91h-168l59 266h80z" />
    <glyph glyph-name="uniF8FF" unicode="&#xf8ff;" horiz-adv-x="1048" 
d="M1049 1470v-1470h-1049v1470h1049zM946 102v1264h-844v-1264h844zM524 1145q-145 0 -168 -195l-102 17q14 141 88 211t186 70t185 -74q72 -74 71 -195q0 -70 -26 -123t-103 -122q-76 -68 -88 -108t-12 -147h-94l-4 35q1 115 29 169t92 118q63 59 82 94q20 35 20 93
t-46 107q-46 50 -110 50zM455 240v137h114v-137h-114z" />
    <glyph glyph-name="fi" unicode="&#xfb01;" horiz-adv-x="1327" 
d="M854 1210l-92 7q-92 0 -120 -43t-42 -111h203l-47 -225h-203l-176 -838h-348l176 838h-170l47 225h170q4 16 23 98t47 131q92 180 360 181q119 0 221 -17zM1354 1462l-56 -266h-348l56 266h348zM700 0l222 1063h348l-221 -1063h-349z" />
    <glyph glyph-name="fl" unicode="&#xfb02;" horiz-adv-x="1327" 
d="M700 0l306 1462h348l-305 -1462h-349zM854 1210l-92 7q-92 0 -120 -43t-42 -111h203l-47 -225h-203l-176 -838h-348l176 838h-170l47 225h170q4 16 23 98t47 131q92 180 360 181q119 0 221 -17z" />
    <glyph glyph-name="commaaccent.alt" horiz-adv-x="645" 
d="M530 1462l-45 -215h-315l35 166q18 92 76 137q53 46 109 60t145 14l-17 -86q-57 -6 -85 -22t-44 -54h141z" />
    <glyph glyph-name="caron.alt" horiz-adv-x="530" 
d="M494 1462h313l-236 -305h-213z" />
    <glyph glyph-name="grave.cap" horiz-adv-x="530" 
d="M-92 1862h362l203 -299h-233z" />
    <glyph glyph-name="acute.cap" horiz-adv-x="530" 
d="M240 1563l221 299h379l-367 -299h-233z" />
    <glyph glyph-name="circumflex.cap" horiz-adv-x="530" 
d="M219 1563h-262l297 299h299l170 -299h-256l-92 168z" />
    <glyph glyph-name="caron.cap" horiz-adv-x="530" 
d="M23 1862h256l92 -168l155 168h262l-296 -299h-299z" />
    <glyph glyph-name="tilde.cap" horiz-adv-x="530" 
d="M535 1579q-53 0 -136 29l-84 28q-71 23 -93 23t-44 -23t-31 -61h-159q14 104 82 187t166 83q41 0 112 -26l92 -35q55 -23 99 -23q50 0 75 90h160q-55 -272 -239 -272z" />
    <glyph glyph-name="dieresis.cap" horiz-adv-x="530" 
d="M291 1579h-316l56 266h315zM727 1579h-315l55 266h315z" />
    <glyph glyph-name="macron.cap" horiz-adv-x="530" 
d="M758 1632h-781l33 162h781z" />
    <glyph glyph-name="breve.cap" horiz-adv-x="530" 
d="M37 1864h141q8 -144 185 -144t241 144h146q-62 -304 -384 -304q-166 0 -256 76t-73 228z" />
    <glyph glyph-name="ring.cap" horiz-adv-x="530" 
d="M506 1636q45 0 76 32q30 32 30 77t-30 75q-31 30 -76 30t-76 -30t-31 -75t31 -77t76 -32zM506 1532q-92 0 -156 60q-63 60 -63 152t63 150q64 60 156 60t156 -58t63 -152q0 -93 -63 -153q-64 -59 -156 -59z" />
    <glyph glyph-name="hungarumlaut.cap" horiz-adv-x="530" 
d="M217 1862h379l-367 -299h-231zM705 1862h378l-366 -299h-232z" />
    <glyph glyph-name="dotaccent.cap" horiz-adv-x="530" 
d="M557 1579h-315l55 266h315z" />
    </font>
</defs>
</svg>
